<svg width="50" height="50" viewBox="0 0 50 50" fill="none" xmlns="http://www.w3.org/2000/svg">
<path d="M24.9672 49.9541C31.632 49.9541 37.8961 47.3565 42.6164 42.6362C46.9953 38.2573 49.5781 32.4385 49.8899 26.2487C49.9195 25.6401 49.4445 25.1057 48.8359 25.076C48.2274 25.0463 47.693 25.5213 47.6633 26.1299C47.3813 31.7557 45.0211 37.0549 41.0281 41.0479C36.7383 45.3377 31.0234 47.7127 24.9523 47.7127C18.8813 47.7127 13.1664 45.3526 8.87656 41.0479C0.0148418 32.1862 0.0148418 17.758 8.87656 8.89632C16.432 1.34085 28.1883 0.0791332 37.1242 5.76429L34.6156 8.83695L41.8149 8.1096L41.0875 0.910384L38.5492 4.02757C28.7078 -2.38493 15.6602 -1.03415 7.30313 7.32288C-2.43438 17.0604 -2.43438 32.8838 7.30313 42.6213C12.0383 47.3565 18.3023 49.9541 24.9672 49.9541Z" fill="white"/>
<path d="M36.7383 19.851C36.7383 19.8361 36.7383 19.8213 36.7234 19.8213C36.7234 19.7916 36.7086 19.7768 36.7086 19.7471C36.7086 19.7322 36.6938 19.7025 36.6938 19.6877C36.6938 19.6729 36.6789 19.658 36.6789 19.6432C36.6492 19.5689 36.6195 19.5096 36.575 19.4502L31.8547 12.5182C31.6469 12.2064 31.3055 12.0283 30.9344 12.0283H18.9703C18.5992 12.0283 18.2578 12.2064 18.05 12.5182L13.3297 19.4354C13.2852 19.4947 13.2555 19.5689 13.2258 19.6283C13.2258 19.6432 13.2109 19.658 13.2109 19.6729C13.1961 19.6877 13.1961 19.7174 13.1961 19.7322C13.1961 19.7619 13.1813 19.7768 13.1813 19.8064C13.1813 19.8213 13.1813 19.8361 13.1664 19.8361C13.1516 19.9104 13.1367 19.9846 13.1367 20.0588V36.8174C13.1367 37.426 13.6414 37.9307 14.25 37.9307H35.6398C36.2484 37.9307 36.7531 37.426 36.7531 36.8174V20.0736C36.7531 19.9846 36.7531 19.9104 36.7383 19.851ZM19.5641 14.2549H30.3406L33.532 18.9455H16.3578L19.5641 14.2549ZM34.5266 35.7189H15.3781V21.1869H34.5414V35.7189H34.5266Z" fill="white"/>
</svg>
