<svg width="72" height="57" viewBox="0 0 72 57" fill="none" xmlns="http://www.w3.org/2000/svg">
<path d="M70.3832 14.8667L56.1324 0.615807C55.3114 -0.205269 53.9753 -0.205269 53.1542 0.615807L46.8735 6.89653C46.0524 7.71747 46.0524 9.05357 46.8735 9.87479L47.571 10.5723L45.6296 12.5139L39.4038 10.9313C37.8713 10.5415 36.2247 10.9943 35.1067 12.1124L29.8895 17.3297C29.7293 17.3255 29.5689 17.3362 29.4109 17.3636L25.4069 18.062L23.429 16.0842L24.1265 15.3867C24.9475 14.5656 24.9475 13.2297 24.1265 12.4086L17.8457 6.1276C17.0246 5.30652 15.6886 5.3068 14.8676 6.1276L10.8526 10.1426C10.4464 10.5487 10.4464 11.2073 10.8526 11.6133C11.2588 12.0195 11.9173 12.0195 12.3234 11.6133L16.3383 7.59835C16.3484 7.58837 16.3648 7.58837 16.3749 7.59835L22.6555 13.8789C22.6656 13.8891 22.6656 13.9054 22.6555 13.9155L8.40476 28.1664C8.39464 28.1764 8.37828 28.1764 8.36829 28.1664L2.08757 21.8857C2.07897 21.8771 2.07897 21.8578 2.08757 21.8492L9.11837 14.8184C9.52454 14.4123 9.52454 13.7537 9.11837 13.3477C8.7122 12.9415 8.05365 12.9415 7.64761 13.3477L0.616812 20.3785C0.219102 20.7762 0 21.3051 0 21.8675C0 22.4301 0.219102 22.959 0.616812 23.3566L6.89754 29.6373C7.30815 30.0479 7.8473 30.2532 8.3866 30.2532C8.92575 30.2532 9.46519 30.0479 9.87566 29.6373L10.5732 28.9398L12.5511 30.9177L11.8527 34.9217C11.7171 35.6991 11.9693 36.4965 12.5275 37.0546L17.2214 41.7485C17.4244 41.9517 17.6906 42.0532 17.9568 42.0532C18.2229 42.0532 18.4891 41.9517 18.6921 41.7485C19.0983 41.3424 19.0983 40.6838 18.6921 40.2778L13.9982 35.5839C13.9185 35.5041 13.8824 35.3903 13.9019 35.2792L14.693 30.7431C14.7511 30.4095 14.6433 30.0685 14.4038 29.829L12.0439 27.4692L21.9581 17.555L24.3181 19.9148C24.5147 20.1115 24.7801 20.2194 25.0534 20.2194C25.1128 20.2194 25.1727 20.2143 25.2322 20.204L27.3919 19.8274L24.7728 22.4465C23.161 24.0581 23.161 26.6806 24.7728 28.2922C25.5535 29.0729 26.5916 29.5028 27.6957 29.5028C28.7998 29.5028 29.8379 29.0728 30.6185 28.2922L34.7419 24.1688L49.9761 39.4127C50.7798 40.2165 50.7798 41.5246 49.9761 42.3283C49.1724 43.132 47.8644 43.132 47.0608 42.3283C47.0605 42.328 47.0604 42.3279 47.0601 42.3276L41.5661 36.8336C41.1599 36.4274 40.5013 36.4274 40.0953 36.8336C39.6891 37.2397 39.6891 37.8983 40.0953 38.3043L45.59 43.7991L47.7553 45.9643C48.1447 46.3537 48.359 46.8713 48.359 47.422C48.359 47.9727 48.1447 48.4903 47.7553 48.8797C47.3659 49.2691 46.8482 49.4835 46.2976 49.4835C45.7469 49.4835 45.2292 49.2691 44.8398 48.8797L42.6745 46.7144L37.1799 41.2198C36.7737 40.8136 36.1151 40.8136 35.7091 41.2198C35.3029 41.6259 35.3029 42.2845 35.7091 42.6905L41.2037 48.1851C41.5931 48.5745 41.8075 49.0922 41.8075 49.6428C41.8075 50.1935 41.593 50.7113 41.2037 51.1006C40.4 51.9043 39.0919 51.9043 38.2881 51.1006L36.1272 48.9395C36.1257 48.938 36.1243 48.9366 36.1229 48.9351C36.1226 48.9348 36.1225 48.9346 36.1222 48.9344L32.7937 45.6058C32.3875 45.1996 31.729 45.1996 31.3229 45.6058C30.9168 46.012 30.9168 46.6705 31.3229 47.0766L34.6522 50.4057C35.4559 51.2095 35.4559 52.5175 34.6522 53.3212C34.2628 53.7106 33.7451 53.925 33.1944 53.925C32.6438 53.925 32.1261 53.7106 31.7367 53.3212L21.8978 43.4823C21.4916 43.0762 20.8331 43.0762 20.4271 43.4823C20.0209 43.8885 20.0209 44.5471 20.4271 44.9531L30.266 54.792C31.0482 55.5742 32.0883 56.0051 33.1946 56.0051C34.3009 56.0051 35.3409 55.5742 36.1232 54.792C36.6628 54.2524 37.0219 53.6 37.2008 52.9099C38.8245 54.1764 41.1824 54.0634 42.6749 52.571C43.2036 52.0423 43.5717 51.3961 43.7549 50.6911C44.4789 51.2566 45.3648 51.5632 46.2981 51.5632C47.4044 51.5632 48.4445 51.1323 49.2267 50.3501C50.009 49.5678 50.4398 48.5278 50.4398 47.4214C50.4398 46.4872 50.1327 45.6003 49.566 44.876C50.2559 44.6968 50.9084 44.3377 51.4477 43.7984C52.9566 42.2893 53.055 39.8964 51.744 38.2715L53.2464 36.7691C53.6526 36.3629 53.6526 35.7045 53.2464 35.2983C52.8404 34.8922 52.1818 34.8922 51.7756 35.2983L50.2902 36.7837L38.8731 25.3664C40.3566 25.2646 41.811 24.6489 42.9424 23.5173C43.3486 23.1112 43.3486 22.4526 42.9424 22.0466C42.5362 21.6404 41.8777 21.6404 41.4716 22.0466C40.6598 22.8584 39.5806 23.3054 38.4325 23.3054C37.5867 23.3054 36.7788 23.0621 36.0873 22.6099C36.0849 22.6083 36.0826 22.6069 36.0803 22.6054C35.8356 22.4447 35.6053 22.2583 35.3934 22.0466C35.1984 21.8515 34.9338 21.7419 34.658 21.7419C34.3822 21.7419 34.1176 21.8515 33.9226 22.0466L29.1486 26.8206C28.7607 27.2085 28.2451 27.4221 27.6965 27.4221C27.1479 27.4221 26.6323 27.2085 26.2445 26.8206C25.4438 26.0199 25.4438 24.7173 26.2445 23.9166L36.5785 13.5827C37.1804 12.9808 38.067 12.737 38.8922 12.9468L45.6914 14.6751C45.6997 14.6771 45.7079 14.6781 45.7162 14.68C45.7355 14.6845 45.7548 14.6884 45.7742 14.6917C45.79 14.6943 45.8058 14.6965 45.8216 14.6985C45.8387 14.7006 45.8556 14.7022 45.8728 14.7035C45.8907 14.7047 45.9084 14.7057 45.9262 14.706C45.9334 14.7061 45.9405 14.7069 45.9477 14.7069C45.9559 14.7069 45.9639 14.706 45.9721 14.7058C45.9907 14.7054 46.0092 14.7046 46.0277 14.7032C46.0429 14.7021 46.0582 14.7003 46.0735 14.6985C46.0911 14.6963 46.1085 14.6939 46.1259 14.6909C46.1427 14.688 46.1592 14.6845 46.1758 14.6807C46.191 14.6773 46.2062 14.6738 46.2211 14.6696C46.2397 14.6647 46.2582 14.6588 46.2766 14.6527C46.2892 14.6486 46.3017 14.6443 46.314 14.6397C46.3337 14.6323 46.3532 14.6242 46.3724 14.6154C46.3834 14.6106 46.3943 14.6056 46.405 14.6003C46.4242 14.5909 46.443 14.5808 46.4617 14.5702C46.4727 14.564 46.4836 14.5576 46.4943 14.5509C46.5114 14.5404 46.528 14.5293 46.5445 14.5178C46.557 14.5091 46.5691 14.5001 46.5811 14.4909C46.5949 14.4802 46.6084 14.4694 46.6219 14.458C46.6362 14.446 46.6499 14.4333 46.6635 14.4205C46.67 14.4144 46.677 14.4089 46.6833 14.4026L49.0431 12.0428L58.9573 21.957L56.5975 24.3168C56.3581 24.5563 56.2502 24.8973 56.3084 25.2309L56.9138 28.7027C57.0495 29.4801 56.7972 30.2774 56.2392 30.8356L54.9815 32.0933C54.5753 32.4995 54.5753 33.1581 54.9815 33.5641C55.1845 33.7671 55.4507 33.8688 55.7168 33.8688C55.9829 33.8688 56.2492 33.7673 56.4522 33.5641L57.71 32.3064C58.7464 31.2699 59.2148 29.7892 58.963 28.3453L58.4503 25.4056L60.4282 23.4277L61.1257 24.1253C61.5362 24.5357 62.0755 24.7411 62.6148 24.7411C63.1541 24.7411 63.6932 24.5359 64.1038 24.1253L70.3846 17.8445C70.7824 17.4468 71.0014 16.9179 71.0014 16.3555C71 15.7932 70.7809 15.2643 70.3832 14.8667ZM68.9123 16.3741L62.6316 22.6548C62.6214 22.6648 62.6049 22.6646 62.5951 22.6548L61.1622 21.2219L49.7778 9.83749C49.7777 9.83735 49.7774 9.83707 49.7772 9.83679C49.7771 9.83652 49.7768 9.83638 49.7765 9.83624L48.3443 8.40404C48.3342 8.39391 48.3342 8.37755 48.3443 8.36743L54.6251 2.0867C54.6294 2.0824 54.6364 2.08032 54.6434 2.08032C54.6503 2.08032 54.6574 2.08254 54.6617 2.0867L68.9126 16.3376C68.921 16.3462 68.9209 16.3655 68.9123 16.3741Z" fill="white"/>
</svg>
