<svg width="53" height="53" viewBox="0 0 53 53" fill="none" xmlns="http://www.w3.org/2000/svg">
<path d="M46.2951 7.02404H41.8252V2.55424C41.8253 1.14933 40.6757 0 39.2716 0H6.70478C5.29997 0 4.15063 1.14933 4.15063 2.55424V43.4216C4.15063 44.8264 5.29997 45.9759 6.70488 45.9759H11.1748V50.4458C11.1748 51.8506 12.3236 53 13.729 53H35.4392C36.8434 53 38.8306 52.212 39.8529 51.2498L46.9881 44.5335C48.0117 43.5712 48.8482 41.6338 48.8482 40.229L48.8494 9.57849C48.8493 8.17347 47.6999 7.02404 46.2951 7.02404ZM11.1746 9.57839V44.0602H6.70478C6.35872 44.0602 6.06629 43.7678 6.06629 43.4217V2.55424C6.06629 2.20819 6.35872 1.91576 6.70478 1.91576H39.2717C39.6171 1.91576 39.9101 2.20819 39.9101 2.55424V7.02414H13.7288C12.3234 7.02414 11.1746 8.17348 11.1746 9.57839ZM45.6751 43.1387L38.5399 49.8545C38.3937 49.9918 38.2034 50.1265 37.9932 50.2548V44.3794C37.9932 43.9407 38.1702 43.546 38.462 43.2524C38.7564 42.9606 39.151 42.7831 39.5897 42.7831H45.9784C45.8794 42.9177 45.7779 43.0416 45.6751 43.1387ZM46.9323 40.2288C46.9323 40.4184 46.8977 40.6381 46.8455 40.8673H39.5896C37.6516 40.8711 36.0814 42.4413 36.0775 44.3793V51.0068C35.8495 51.0529 35.6299 51.084 35.439 51.084H13.7288V51.0841C13.382 51.0841 13.0903 50.7917 13.0903 50.4457V9.57828C13.0903 9.23223 13.3821 8.9398 13.7288 8.9398H46.295C46.641 8.9398 46.9335 9.23223 46.9335 9.57828L46.9323 40.2288Z" fill="white"/>
<path d="M39.2717 15.9639H20.7537C20.2243 15.9639 19.7959 16.3923 19.7959 16.9217C19.7959 17.4511 20.2245 17.8795 20.7537 17.8795H39.2717C39.8005 17.8795 40.2295 17.4511 40.2295 16.9217C40.2295 16.3923 39.8005 15.9639 39.2717 15.9639Z" fill="white"/>
<path d="M39.2717 28.7349H20.7537C20.2243 28.7349 19.7959 29.1633 19.7959 29.6927C19.7959 30.2221 20.2245 30.6505 20.7537 30.6505H39.2717C39.8005 30.6505 40.2295 30.2221 40.2295 29.6927C40.2295 29.1632 39.8005 28.7349 39.2717 28.7349Z" fill="white"/>
<path d="M30.9705 35.1206H20.7537C20.2243 35.1206 19.7959 35.5491 19.7959 36.0784C19.7959 36.6078 20.2243 37.0363 20.7537 37.0363H30.9705C31.4993 37.0363 31.9277 36.6078 31.9277 36.0784C31.9277 35.5491 31.4993 35.1206 30.9705 35.1206Z" fill="white"/>
<path d="M39.2717 22.3494H20.7537C20.2243 22.3494 19.7959 22.7778 19.7959 23.3072C19.7959 23.8366 20.2245 24.265 20.7537 24.265H39.2717C39.8005 24.265 40.2295 23.8366 40.2295 23.3072C40.2295 22.7778 39.8005 22.3494 39.2717 22.3494Z" fill="white"/>
</svg>
