<svg width="49" height="49" viewBox="0 0 49 49" fill="none" xmlns="http://www.w3.org/2000/svg">
<path d="M47.947 23.7825C48.5116 23.7825 48.9552 24.2261 48.9552 24.7907C48.9552 25.3553 48.5116 25.799 47.947 25.799H46.9387V23.7825H47.947Z" fill="white"/>
<path d="M25.7659 23.7825H46.9389V25.799H25.7659V23.7825Z" fill="white"/>
<path d="M43.9141 48.9883H24.7576C25.3222 48.9883 25.7658 48.5446 25.7658 47.98V46.9718H43.9141C45.5878 46.9718 46.9388 45.6207 46.9388 43.9471V25.7988H47.9471C48.5117 25.7988 48.9553 25.3551 48.9553 24.7905V43.9471C48.9553 46.7298 46.6969 48.9883 43.9141 48.9883Z" fill="white"/>
<path d="M48.9553 5.63397V24.7905C48.9553 24.2259 48.5117 23.7823 47.9471 23.7823H46.9388V5.63397C46.9388 3.96029 45.5878 2.60925 43.9141 2.60925H25.7658V1.60101C25.7658 1.0364 25.3222 0.592773 24.7576 0.592773H43.9141C46.6969 0.592773 48.9553 2.85123 48.9553 5.63397Z" fill="white"/>
<path d="M40.8893 12.6917C41.454 12.6917 41.8976 13.1353 41.8976 13.6999C41.8976 14.2645 41.454 14.7081 40.8893 14.7081H32.8234C32.2588 14.7081 31.8152 14.2645 31.8152 13.6999C31.8152 13.1353 32.2588 12.6917 32.8234 12.6917H40.8893Z" fill="white"/>
<path d="M40.8893 32.8567C41.454 32.8567 41.8976 33.3003 41.8976 33.8649C41.8976 34.4295 41.454 34.8732 40.8893 34.8732H32.8234C32.2588 34.8732 31.8152 34.4295 31.8152 33.8649C31.8152 33.3003 32.2588 32.8567 32.8234 32.8567H40.8893Z" fill="white"/>
<path d="M40.8893 38.906C41.454 38.906 41.8976 39.3496 41.8976 39.9142C41.8976 40.4789 41.454 40.9225 40.8893 40.9225H32.8234C32.2588 40.9225 31.8152 40.4789 31.8152 39.9142C31.8152 39.3496 32.2588 38.906 32.8234 38.906H40.8893Z" fill="white"/>
<path d="M25.7657 46.9717V47.9799C25.7657 48.5445 25.3221 48.9882 24.7575 48.9882C24.1929 48.9882 23.7493 48.5445 23.7493 47.9799V46.9717H25.7657Z" fill="white"/>
<path d="M23.7493 25.7986H25.7657V46.9716H23.7493V25.7986Z" fill="white"/>
<path d="M23.7493 23.7825H25.7657V25.799H23.7493V23.7825Z" fill="white"/>
<path d="M23.7493 2.60938H25.7657V23.7824H23.7493V2.60938Z" fill="white"/>
<path d="M25.7657 1.60101V2.60925H23.7493V1.60101C23.7493 1.0364 24.1929 0.592773 24.7575 0.592773C25.3221 0.592773 25.7657 1.0364 25.7657 1.60101Z" fill="white"/>
<path d="M2.57617 23.7825H23.7492V25.799H2.57617V23.7825Z" fill="white"/>
<path d="M16.6917 12.6917C17.2563 12.6917 17.7 13.1353 17.7 13.6999C17.7 14.2645 17.2563 14.7081 16.6917 14.7081H13.667V12.6917H16.6917Z" fill="white"/>
<path d="M16.3892 39.2084C16.7925 39.5915 16.7925 40.2368 16.3892 40.6199C16.2077 40.8215 15.9456 40.9224 15.6834 40.9224C15.4213 40.9224 15.1591 40.8215 14.9776 40.6199L12.6587 38.3009L14.0702 36.8894L16.3892 39.2084Z" fill="white"/>
<path d="M14.9776 33.1592C15.3608 32.7559 16.006 32.7559 16.3892 33.1592C16.7925 33.5423 16.7925 34.1876 16.3892 34.5707L14.0702 36.8896L12.6587 35.4781L14.9776 33.1592Z" fill="white"/>
<path d="M11.2412 36.8875L12.6528 35.4758L14.0644 36.8875L12.6528 38.2991L11.2412 36.8875Z" fill="white"/>
<path d="M13.6669 14.7083V17.733C13.6669 18.2976 13.2232 18.7412 12.6586 18.7412C12.094 18.7412 11.6504 18.2976 11.6504 17.733V14.7083H13.6669Z" fill="white"/>
<path d="M11.6504 12.6917H13.6669V14.7081H11.6504V12.6917Z" fill="white"/>
<path d="M13.6669 9.66717V12.6919H11.6504V9.66717C11.6504 9.10256 12.094 8.65894 12.6586 8.65894C13.2232 8.65894 13.6669 9.10256 13.6669 9.66717Z" fill="white"/>
<path d="M12.6587 35.4781L11.2472 36.8896L8.9282 34.5707C8.52491 34.1876 8.52491 33.5423 8.9282 33.1592C9.31134 32.7559 9.95661 32.7559 10.3397 33.1592L12.6587 35.4781Z" fill="white"/>
<path d="M11.6504 12.6917V14.7081H8.62567C8.06106 14.7081 7.61743 14.2645 7.61743 13.6999C7.61743 13.1353 8.06106 12.6917 8.62567 12.6917H11.6504Z" fill="white"/>
<path d="M10.3397 40.6199C10.1583 40.8215 9.89611 40.9224 9.63397 40.9224C9.37183 40.9224 9.10969 40.8215 8.9282 40.6199C8.52491 40.2368 8.52491 39.5915 8.9282 39.2084L11.2472 36.8894L12.6587 38.3009L10.3397 40.6199Z" fill="white"/>
<path d="M2.57629 23.7825V25.799H1.56805C1.00344 25.799 0.559814 25.3553 0.559814 24.7907C0.559814 24.2261 1.00344 23.7825 1.56805 23.7825H2.57629Z" fill="white"/>
<path d="M0.559814 5.63397C0.559814 2.85123 2.81827 0.592773 5.60101 0.592773H24.7576C24.1929 0.592773 23.7493 1.0364 23.7493 1.60101V2.60925H5.60101C3.92733 2.60925 2.57629 3.96029 2.57629 5.63397V23.7823H1.56805C1.00344 23.7823 0.559814 24.2259 0.559814 24.7905V5.63397Z" fill="white"/>
<path d="M2.57629 43.9471C2.57629 45.6207 3.92733 46.9718 5.60101 46.9718H23.7493V47.98C23.7493 48.5446 24.1929 48.9883 24.7576 48.9883H5.60101C2.81827 48.9883 0.559814 46.7298 0.559814 43.9471V24.7905C0.559814 25.3551 1.00344 25.7988 1.56805 25.7988H2.57629V43.9471Z" fill="white"/>
</svg>
