<svg width="52" height="52" viewBox="0 0 52 52" fill="none" xmlns="http://www.w3.org/2000/svg">
<path d="M39 39.8665H13V41.5998H39V39.8665Z" fill="white"/>
<path d="M39 45.0667H13V46.8H39V45.0667Z" fill="white"/>
<path d="M40.7333 25.9999C41.6906 25.9999 42.4667 25.2238 42.4667 24.2665C42.4667 23.3092 41.6906 22.5332 40.7333 22.5332C39.776 22.5332 39 23.3092 39 24.2665C39 25.2238 39.776 25.9999 40.7333 25.9999Z" fill="white"/>
<path d="M45.9333 15.6H42.4666V3.46667C42.4666 1.55995 40.9066 0 38.9999 0H13C11.0933 0 9.53337 1.55995 9.53337 3.46667V15.6H6.0667C3.11999 15.6 0.866699 17.8533 0.866699 20.8V36.4C0.866609 39.3467 3.11999 41.6 6.0667 41.6H9.53337V48.5333C9.53337 50.44 11.0933 52 13 52H39C40.9067 52 42.4667 50.44 42.4667 48.5333V41.6H45.9334C48.8801 41.6 51.1334 39.3467 51.1334 36.4V20.8C51.1334 17.8533 48.88 15.6 45.9333 15.6ZM11.2666 3.46667C11.2666 2.60005 11.9599 1.73333 12.9999 1.73333H38.9999C39.8666 1.73333 40.7333 2.42667 40.7333 3.46667V15.6H11.2666V3.46667ZM40.7334 48.5333C40.7334 49.4 40.04 50.2667 39 50.2667H13C12.1334 50.2667 11.2667 49.5733 11.2667 48.5333V36.4H40.7334V48.5333ZM49.3999 36.4C49.3999 38.3066 47.8399 39.8667 45.9333 39.8667H42.4666V34.6667H9.53337V39.8667H6.0667C4.15999 39.8667 2.60003 38.3066 2.60003 36.4V20.8C2.60003 18.8933 4.15999 17.3333 6.0667 17.3333H45.9334C47.84 17.3333 49.4 18.8933 49.4 20.8V36.4H49.3999Z" fill="white"/>
</svg>
