<svg width="216" height="221" viewBox="0 0 216 221" fill="none" xmlns="http://www.w3.org/2000/svg">
<rect x="0.75" y="50.75" width="162.5" height="116.5" stroke="#232323" stroke-width="1.5"/>
<path d="M82 50V168" stroke="#232323" stroke-width="1.5" stroke-dasharray="3 3"/>
<path d="M0.5 40H163.5" stroke="#232323" stroke-dasharray="3 3"/>
<path d="M175 50L175 167" stroke="#232323" stroke-dasharray="3 3"/>
<path d="M0.75 51.5V42.75V34" stroke="#232323" stroke-width="1.5"/>
<path d="M163.25 51.5V42.75V34" stroke="#232323" stroke-width="1.5"/>
<path d="M163.25 183.5V174.75V166" stroke="#232323" stroke-width="1.5"/>
<path d="M82.25 184.5V175.75V167" stroke="#232323" stroke-width="1.5"/>
<path d="M163 50.7L171.5 50.7L180 50.7" stroke="#232323" stroke-width="1.5"/>
<path d="M163 167.7L171.5 167.7L180 167.7" stroke="#232323" stroke-width="1.5"/>
<path d="M63.3486 30H56.8271V29.0908L60.2725 25.2627C60.7829 24.6839 61.1338 24.2145 61.3252 23.8545C61.5212 23.4899 61.6191 23.1139 61.6191 22.7266C61.6191 22.207 61.4619 21.7809 61.1475 21.4482C60.833 21.1156 60.4137 20.9492 59.8896 20.9492C59.2607 20.9492 58.7708 21.1292 58.4199 21.4893C58.0736 21.8447 57.9004 22.3415 57.9004 22.9795H56.6357C56.6357 22.0635 56.9297 21.3229 57.5176 20.7578C58.11 20.1927 58.9007 19.9102 59.8896 19.9102C60.8148 19.9102 61.5462 20.154 62.084 20.6416C62.6217 21.1247 62.8906 21.7695 62.8906 22.5762C62.8906 23.556 62.2663 24.7227 61.0176 26.0762L58.3516 28.9678H63.3486V30ZM68.8447 30H67.5732V21.5713L65.0234 22.5078V21.3594L68.6465 19.999H68.8447V30ZM78.791 25.7549C78.791 27.236 78.5381 28.3366 78.0322 29.0566C77.5264 29.7767 76.7357 30.1367 75.6602 30.1367C74.5983 30.1367 73.8122 29.7858 73.3018 29.084C72.7913 28.3776 72.527 27.3249 72.5088 25.9258V24.2373C72.5088 22.7744 72.7617 21.6875 73.2676 20.9766C73.7734 20.2656 74.5664 19.9102 75.6465 19.9102C76.7174 19.9102 77.5059 20.2542 78.0117 20.9424C78.5176 21.626 78.7773 22.6833 78.791 24.1143V25.7549ZM77.5264 24.0254C77.5264 22.9544 77.376 22.1751 77.0752 21.6875C76.7744 21.1953 76.2982 20.9492 75.6465 20.9492C74.9993 20.9492 74.5277 21.193 74.2314 21.6807C73.9352 22.1683 73.7826 22.918 73.7734 23.9297V25.9531C73.7734 27.0286 73.9284 27.8239 74.2383 28.3389C74.5527 28.8493 75.0267 29.1045 75.6602 29.1045C76.2845 29.1045 76.7471 28.863 77.0479 28.3799C77.3532 27.8968 77.5127 27.1357 77.5264 26.0967V24.0254ZM85.2031 22.6035L85.2373 23.4238C85.7796 22.7858 86.5111 22.4668 87.4316 22.4668C88.4661 22.4668 89.1702 22.8633 89.5439 23.6562C89.79 23.3008 90.109 23.0137 90.501 22.7949C90.8975 22.5762 91.3646 22.4668 91.9023 22.4668C93.5247 22.4668 94.3496 23.3258 94.377 25.0439V30H93.1123V25.1191C93.1123 24.5905 92.9915 24.1963 92.75 23.9365C92.5085 23.6722 92.1029 23.54 91.5332 23.54C91.0638 23.54 90.6742 23.6813 90.3643 23.9639C90.0544 24.2419 89.8743 24.6178 89.8242 25.0918V30H88.5527V25.1533C88.5527 24.0778 88.0264 23.54 86.9736 23.54C86.1442 23.54 85.5768 23.8932 85.2715 24.5996V30H84.0068V22.6035H85.2031ZM97.4805 22.6035L97.5146 23.4238C98.057 22.7858 98.7884 22.4668 99.709 22.4668C100.743 22.4668 101.448 22.8633 101.821 23.6562C102.067 23.3008 102.386 23.0137 102.778 22.7949C103.175 22.5762 103.642 22.4668 104.18 22.4668C105.802 22.4668 106.627 23.3258 106.654 25.0439V30H105.39V25.1191C105.39 24.5905 105.269 24.1963 105.027 23.9365C104.786 23.6722 104.38 23.54 103.811 23.54C103.341 23.54 102.951 23.6813 102.642 23.9639C102.332 24.2419 102.152 24.6178 102.102 25.0918V30H100.83V25.1533C100.83 24.0778 100.304 23.54 99.251 23.54C98.4215 23.54 97.8542 23.8932 97.5488 24.5996V30H96.2842V22.6035H97.4805Z" fill="black"/>
<path d="M101.983 201H100.712V192.571L98.1621 193.508V192.359L101.785 190.999H101.983V201ZM111.93 196.755C111.93 198.236 111.677 199.337 111.171 200.057C110.665 200.777 109.874 201.137 108.799 201.137C107.737 201.137 106.951 200.786 106.44 200.084C105.93 199.378 105.666 198.325 105.647 196.926V195.237C105.647 193.774 105.9 192.688 106.406 191.977C106.912 191.266 107.705 190.91 108.785 190.91C109.856 190.91 110.645 191.254 111.15 191.942C111.656 192.626 111.916 193.683 111.93 195.114V196.755ZM110.665 195.025C110.665 193.954 110.515 193.175 110.214 192.688C109.913 192.195 109.437 191.949 108.785 191.949C108.138 191.949 107.666 192.193 107.37 192.681C107.074 193.168 106.921 193.918 106.912 194.93V196.953C106.912 198.029 107.067 198.824 107.377 199.339C107.691 199.849 108.165 200.104 108.799 200.104C109.423 200.104 109.886 199.863 110.187 199.38C110.492 198.897 110.651 198.136 110.665 197.097V195.025ZM114.131 196.01L114.637 191.047H119.736V192.216H115.71L115.409 194.93C115.897 194.643 116.451 194.499 117.07 194.499C117.977 194.499 118.697 194.8 119.23 195.401C119.764 195.998 120.03 196.807 120.03 197.828C120.03 198.854 119.752 199.662 119.196 200.255C118.645 200.843 117.872 201.137 116.879 201.137C115.999 201.137 115.282 200.893 114.726 200.405C114.17 199.918 113.853 199.243 113.775 198.382H114.972C115.049 198.951 115.252 199.382 115.58 199.674C115.908 199.961 116.341 200.104 116.879 200.104C117.467 200.104 117.927 199.904 118.26 199.503C118.597 199.102 118.766 198.548 118.766 197.842C118.766 197.176 118.583 196.643 118.219 196.242C117.859 195.837 117.378 195.634 116.776 195.634C116.225 195.634 115.792 195.755 115.478 195.996L115.143 196.27L114.131 196.01ZM126.203 193.604L126.237 194.424C126.78 193.786 127.511 193.467 128.432 193.467C129.466 193.467 130.17 193.863 130.544 194.656C130.79 194.301 131.109 194.014 131.501 193.795C131.897 193.576 132.365 193.467 132.902 193.467C134.525 193.467 135.35 194.326 135.377 196.044V201H134.112V196.119C134.112 195.59 133.992 195.196 133.75 194.937C133.508 194.672 133.103 194.54 132.533 194.54C132.064 194.54 131.674 194.681 131.364 194.964C131.054 195.242 130.874 195.618 130.824 196.092V201H129.553V196.153C129.553 195.078 129.026 194.54 127.974 194.54C127.144 194.54 126.577 194.893 126.271 195.6V201H125.007V193.604H126.203ZM138.48 193.604L138.515 194.424C139.057 193.786 139.788 193.467 140.709 193.467C141.743 193.467 142.448 193.863 142.821 194.656C143.067 194.301 143.386 194.014 143.778 193.795C144.175 193.576 144.642 193.467 145.18 193.467C146.802 193.467 147.627 194.326 147.654 196.044V201H146.39V196.119C146.39 195.59 146.269 195.196 146.027 194.937C145.786 194.672 145.38 194.54 144.811 194.54C144.341 194.54 143.951 194.681 143.642 194.964C143.332 195.242 143.152 195.618 143.102 196.092V201H141.83V196.153C141.83 195.078 141.304 194.54 140.251 194.54C139.422 194.54 138.854 194.893 138.549 195.6V201H137.284V193.604H138.48Z" fill="black"/>
<path d="M196 129.017L196 130.288L187.571 130.288L188.508 132.838L187.359 132.838L185.999 129.215L185.999 129.017L196 129.017ZM192.657 119.973L192.657 118.592L193.689 118.592L193.689 119.973L196 119.973L196 121.244L193.689 121.244L193.689 125.776L192.944 125.776L186.047 121.319L186.047 119.973L192.657 119.973ZM192.657 124.341L192.657 121.244L187.776 121.244L188.05 121.395L192.657 124.341ZM188.645 111.414C189.141 111.414 189.583 111.546 189.971 111.811C190.358 112.07 190.661 112.424 190.88 112.87C191.103 112.351 191.429 111.94 191.857 111.64C192.286 111.334 192.771 111.182 193.313 111.182C194.175 111.182 194.861 111.473 195.371 112.057C195.882 112.635 196.137 113.399 196.137 114.347C196.137 115.304 195.882 116.072 195.371 116.65C194.856 117.225 194.17 117.512 193.313 117.512C192.776 117.512 192.29 117.366 191.857 117.074C191.424 116.778 191.096 116.37 190.873 115.851C190.654 116.293 190.351 116.641 189.964 116.896C189.576 117.152 189.137 117.279 188.645 117.279C187.806 117.279 187.141 117.01 186.648 116.473C186.156 115.935 185.91 115.226 185.91 114.347C185.91 113.472 186.156 112.765 186.648 112.228C187.141 111.685 187.806 111.414 188.645 111.414ZM193.286 112.446C192.73 112.446 192.277 112.624 191.926 112.979C191.575 113.33 191.399 113.791 191.399 114.36C191.399 114.93 191.573 115.388 191.919 115.734C192.265 116.076 192.721 116.247 193.286 116.247C193.851 116.247 194.296 116.081 194.619 115.748C194.943 115.411 195.104 114.944 195.104 114.347C195.104 113.754 194.943 113.289 194.619 112.952C194.291 112.615 193.847 112.446 193.286 112.446ZM186.949 114.347C186.949 114.843 187.104 115.247 187.414 115.557C187.719 115.862 188.136 116.015 188.665 116.015C189.171 116.015 189.581 115.864 189.896 115.563C190.205 115.258 190.36 114.853 190.36 114.347C190.36 113.841 190.205 113.437 189.896 113.137C189.581 112.831 189.171 112.679 188.665 112.679C188.159 112.679 187.747 112.836 187.428 113.15C187.109 113.465 186.949 113.864 186.949 114.347ZM188.604 104.797L189.424 104.763C188.786 104.22 188.467 103.489 188.467 102.568C188.467 101.534 188.863 100.83 189.656 100.456C189.301 100.21 189.014 99.8909 188.795 99.499C188.576 99.1025 188.467 98.6354 188.467 98.0977C188.467 96.4753 189.326 95.6504 191.044 95.623L196 95.623L196 96.8877L191.119 96.8877C190.59 96.8877 190.196 97.0085 189.937 97.25C189.672 97.4915 189.54 97.8971 189.54 98.4668C189.54 98.9362 189.681 99.3258 189.964 99.6357C190.242 99.9456 190.618 100.126 191.092 100.176L196 100.176L196 101.447L191.153 101.447C190.078 101.447 189.54 101.974 189.54 103.026C189.54 103.856 189.893 104.423 190.6 104.729L196 104.729L196 105.993L188.604 105.993L188.604 104.797ZM188.604 92.5195L189.424 92.4854C188.786 91.943 188.467 91.2116 188.467 90.291C188.467 89.2565 188.863 88.5524 189.656 88.1787C189.301 87.9326 189.014 87.6136 188.795 87.2217C188.576 86.8252 188.467 86.3581 188.467 85.8203C188.467 84.1979 189.326 83.373 191.044 83.3457L196 83.3457L196 84.6104L191.119 84.6104C190.59 84.6104 190.196 84.7311 189.937 84.9727C189.672 85.2142 189.54 85.6198 189.54 86.1895C189.54 86.6589 189.681 87.0485 189.964 87.3584C190.242 87.6683 190.618 87.8483 191.092 87.8984L196 87.8984L196 89.1699L191.153 89.1699C190.078 89.1699 189.54 89.6963 189.54 90.749C189.54 91.5784 189.893 92.1458 190.6 92.4512L196 92.4512L196 93.7158L188.604 93.7158L188.604 92.5195Z" fill="black"/>
<path d="M81.5 179H164" stroke="#232323" stroke-dasharray="3 3"/>
</svg>
