<svg width="216" height="221" viewBox="0 0 216 221" fill="none" xmlns="http://www.w3.org/2000/svg">
<rect x="0.75" y="50.75" width="162.5" height="116.5" stroke="#232323" stroke-width="1.5"/>
<path d="M82 50V168" stroke="#232323" stroke-width="1.5" stroke-dasharray="3 3"/>
<path d="M0.5 40H163.5" stroke="#232323" stroke-dasharray="3 3"/>
<path d="M175 50L175 167" stroke="#232323" stroke-dasharray="3 3"/>
<path d="M0.75 51.5V42.75V34" stroke="#232323" stroke-width="1.5"/>
<path d="M163.25 51.5V42.75V34" stroke="#232323" stroke-width="1.5"/>
<path d="M163.25 183.5V174.75V166" stroke="#232323" stroke-width="1.5"/>
<path d="M82.25 184.5V175.75V167" stroke="#232323" stroke-width="1.5"/>
<path d="M163 50.7L171.5 50.7L180 50.7" stroke="#232323" stroke-width="1.5"/>
<path d="M163 167.7L171.5 167.7L180 167.7" stroke="#232323" stroke-width="1.5"/>
<path d="M63.3486 30H56.8271V29.0908L60.2725 25.2627C60.7829 24.6839 61.1338 24.2145 61.3252 23.8545C61.5212 23.4899 61.6191 23.1139 61.6191 22.7266C61.6191 22.207 61.4619 21.7809 61.1475 21.4482C60.833 21.1156 60.4137 20.9492 59.8896 20.9492C59.2607 20.9492 58.7708 21.1292 58.4199 21.4893C58.0736 21.8447 57.9004 22.3415 57.9004 22.9795H56.6357C56.6357 22.0635 56.9297 21.3229 57.5176 20.7578C58.11 20.1927 58.9007 19.9102 59.8896 19.9102C60.8148 19.9102 61.5462 20.154 62.084 20.6416C62.6217 21.1247 62.8906 21.7695 62.8906 22.5762C62.8906 23.556 62.2663 24.7227 61.0176 26.0762L58.3516 28.9678H63.3486V30ZM69.5352 25.625C69.2708 25.9395 68.9541 26.1924 68.585 26.3838C68.2204 26.5752 67.8193 26.6709 67.3818 26.6709C66.8076 26.6709 66.3063 26.5296 65.8779 26.2471C65.4541 25.9645 65.126 25.568 64.8936 25.0576C64.6611 24.5426 64.5449 23.9753 64.5449 23.3555C64.5449 22.6901 64.6702 22.0908 64.9209 21.5576C65.1761 21.0244 65.5361 20.6165 66.001 20.334C66.4658 20.0514 67.0081 19.9102 67.6279 19.9102C68.6123 19.9102 69.387 20.2793 69.9521 21.0176C70.5218 21.7513 70.8066 22.7539 70.8066 24.0254V24.3945C70.8066 26.3314 70.4238 27.7464 69.6582 28.6396C68.8926 29.5283 67.7373 29.984 66.1924 30.0068H65.9463V28.9404H66.2129C67.2565 28.9222 68.0586 28.651 68.6191 28.127C69.1797 27.5983 69.485 26.7643 69.5352 25.625ZM67.5869 25.625C68.0107 25.625 68.4004 25.4951 68.7559 25.2354C69.1159 24.9756 69.3779 24.6543 69.542 24.2715V23.7656C69.542 22.9362 69.362 22.2617 69.002 21.7422C68.6419 21.2227 68.1862 20.9629 67.6348 20.9629C67.0788 20.9629 66.6322 21.1771 66.2949 21.6055C65.9577 22.0293 65.7891 22.5898 65.7891 23.2871C65.7891 23.9661 65.9508 24.5267 66.2744 24.9688C66.6025 25.4062 67.04 25.625 67.5869 25.625ZM78.9756 20.7578L74.8535 30H73.5273L77.6357 21.0859H72.249V20.0469H78.9756V20.7578ZM85.2031 22.6035L85.2373 23.4238C85.7796 22.7858 86.5111 22.4668 87.4316 22.4668C88.4661 22.4668 89.1702 22.8633 89.5439 23.6562C89.79 23.3008 90.109 23.0137 90.501 22.7949C90.8975 22.5762 91.3646 22.4668 91.9023 22.4668C93.5247 22.4668 94.3496 23.3258 94.377 25.0439V30H93.1123V25.1191C93.1123 24.5905 92.9915 24.1963 92.75 23.9365C92.5085 23.6722 92.1029 23.54 91.5332 23.54C91.0638 23.54 90.6742 23.6813 90.3643 23.9639C90.0544 24.2419 89.8743 24.6178 89.8242 25.0918V30H88.5527V25.1533C88.5527 24.0778 88.0264 23.54 86.9736 23.54C86.1442 23.54 85.5768 23.8932 85.2715 24.5996V30H84.0068V22.6035H85.2031ZM97.4805 22.6035L97.5146 23.4238C98.057 22.7858 98.7884 22.4668 99.709 22.4668C100.743 22.4668 101.448 22.8633 101.821 23.6562C102.067 23.3008 102.386 23.0137 102.778 22.7949C103.175 22.5762 103.642 22.4668 104.18 22.4668C105.802 22.4668 106.627 23.3258 106.654 25.0439V30H105.39V25.1191C105.39 24.5905 105.269 24.1963 105.027 23.9365C104.786 23.6722 104.38 23.54 103.811 23.54C103.341 23.54 102.951 23.6813 102.642 23.9639C102.332 24.2419 102.152 24.6178 102.102 25.0918V30H100.83V25.1533C100.83 24.0778 100.304 23.54 99.251 23.54C98.4215 23.54 97.8542 23.8932 97.5488 24.5996V30H96.2842V22.6035H97.4805Z" fill="black"/>
<path d="M101.983 201H100.712V192.571L98.1621 193.508V192.359L101.785 190.999H101.983V201ZM111.027 197.657H112.408V198.689H111.027V201H109.756V198.689H105.224V197.944L109.681 191.047H111.027V197.657ZM106.659 197.657H109.756V192.776L109.605 193.05L106.659 197.657ZM119.586 193.645C119.586 194.141 119.454 194.583 119.189 194.971C118.93 195.358 118.576 195.661 118.13 195.88C118.649 196.103 119.06 196.429 119.36 196.857C119.666 197.286 119.818 197.771 119.818 198.313C119.818 199.175 119.527 199.861 118.943 200.371C118.365 200.882 117.601 201.137 116.653 201.137C115.696 201.137 114.928 200.882 114.35 200.371C113.775 199.856 113.488 199.17 113.488 198.313C113.488 197.776 113.634 197.29 113.926 196.857C114.222 196.424 114.63 196.096 115.149 195.873C114.707 195.654 114.359 195.351 114.104 194.964C113.848 194.576 113.721 194.137 113.721 193.645C113.721 192.806 113.99 192.141 114.527 191.648C115.065 191.156 115.774 190.91 116.653 190.91C117.528 190.91 118.235 191.156 118.772 191.648C119.315 192.141 119.586 192.806 119.586 193.645ZM118.554 198.286C118.554 197.73 118.376 197.277 118.021 196.926C117.67 196.575 117.209 196.399 116.64 196.399C116.07 196.399 115.612 196.573 115.266 196.919C114.924 197.265 114.753 197.721 114.753 198.286C114.753 198.851 114.919 199.296 115.252 199.619C115.589 199.943 116.056 200.104 116.653 200.104C117.246 200.104 117.711 199.943 118.048 199.619C118.385 199.291 118.554 198.847 118.554 198.286ZM116.653 191.949C116.157 191.949 115.753 192.104 115.443 192.414C115.138 192.719 114.985 193.136 114.985 193.665C114.985 194.171 115.136 194.581 115.437 194.896C115.742 195.205 116.147 195.36 116.653 195.36C117.159 195.36 117.562 195.205 117.863 194.896C118.169 194.581 118.321 194.171 118.321 193.665C118.321 193.159 118.164 192.747 117.85 192.428C117.535 192.109 117.136 191.949 116.653 191.949ZM126.203 193.604L126.237 194.424C126.78 193.786 127.511 193.467 128.432 193.467C129.466 193.467 130.17 193.863 130.544 194.656C130.79 194.301 131.109 194.014 131.501 193.795C131.897 193.576 132.365 193.467 132.902 193.467C134.525 193.467 135.35 194.326 135.377 196.044V201H134.112V196.119C134.112 195.59 133.992 195.196 133.75 194.937C133.508 194.672 133.103 194.54 132.533 194.54C132.064 194.54 131.674 194.681 131.364 194.964C131.054 195.242 130.874 195.618 130.824 196.092V201H129.553V196.153C129.553 195.078 129.026 194.54 127.974 194.54C127.144 194.54 126.577 194.893 126.271 195.6V201H125.007V193.604H126.203ZM138.48 193.604L138.515 194.424C139.057 193.786 139.788 193.467 140.709 193.467C141.743 193.467 142.448 193.863 142.821 194.656C143.067 194.301 143.386 194.014 143.778 193.795C144.175 193.576 144.642 193.467 145.18 193.467C146.802 193.467 147.627 194.326 147.654 196.044V201H146.39V196.119C146.39 195.59 146.269 195.196 146.027 194.937C145.786 194.672 145.38 194.54 144.811 194.54C144.341 194.54 143.951 194.681 143.642 194.964C143.332 195.242 143.152 195.618 143.102 196.092V201H141.83V196.153C141.83 195.078 141.304 194.54 140.251 194.54C139.422 194.54 138.854 194.893 138.549 195.6V201H137.284V193.604H138.48Z" fill="black"/>
<path d="M196 126.651L196 133.173L195.091 133.173L191.263 129.728C190.684 129.217 190.215 128.866 189.854 128.675C189.49 128.479 189.114 128.381 188.727 128.381C188.207 128.381 187.781 128.538 187.448 128.853C187.116 129.167 186.949 129.586 186.949 130.11C186.949 130.739 187.129 131.229 187.489 131.58C187.845 131.926 188.341 132.1 188.979 132.1L188.979 133.364C188.063 133.364 187.323 133.07 186.758 132.482C186.193 131.89 185.91 131.099 185.91 130.11C185.91 129.185 186.154 128.454 186.642 127.916C187.125 127.378 187.77 127.109 188.576 127.109C189.556 127.109 190.723 127.734 192.076 128.982L194.968 131.648L194.968 126.651L196 126.651ZM196 121.155L196 122.427L187.571 122.427L188.508 124.977L187.359 124.977L185.999 121.354L185.999 121.155L196 121.155ZM191.755 111.209C193.236 111.209 194.337 111.462 195.057 111.968C195.777 112.474 196.137 113.264 196.137 114.34C196.137 115.402 195.786 116.188 195.084 116.698C194.378 117.209 193.325 117.473 191.926 117.491L190.237 117.491C188.774 117.491 187.687 117.238 186.977 116.732C186.266 116.227 185.91 115.434 185.91 114.354C185.91 113.283 186.254 112.494 186.942 111.988C187.626 111.482 188.683 111.223 190.114 111.209L191.755 111.209ZM190.025 112.474C188.954 112.474 188.175 112.624 187.687 112.925C187.195 113.226 186.949 113.702 186.949 114.354C186.949 115.001 187.193 115.472 187.681 115.769C188.168 116.065 188.918 116.217 189.93 116.227L191.953 116.227C193.029 116.227 193.824 116.072 194.339 115.762C194.849 115.447 195.104 114.973 195.104 114.34C195.104 113.715 194.863 113.253 194.38 112.952C193.897 112.647 193.136 112.487 192.097 112.474L190.025 112.474ZM188.604 104.797L189.424 104.763C188.786 104.22 188.467 103.489 188.467 102.568C188.467 101.534 188.863 100.83 189.656 100.456C189.301 100.21 189.014 99.8909 188.795 99.499C188.576 99.1025 188.467 98.6354 188.467 98.0977C188.467 96.4753 189.326 95.6504 191.044 95.623L196 95.623L196 96.8877L191.119 96.8877C190.59 96.8877 190.196 97.0085 189.937 97.25C189.672 97.4915 189.54 97.8971 189.54 98.4668C189.54 98.9362 189.681 99.3258 189.964 99.6357C190.242 99.9456 190.618 100.126 191.092 100.176L196 100.176L196 101.447L191.153 101.447C190.078 101.447 189.54 101.974 189.54 103.026C189.54 103.856 189.893 104.423 190.6 104.729L196 104.729L196 105.993L188.604 105.993L188.604 104.797ZM188.604 92.5195L189.424 92.4854C188.786 91.943 188.467 91.2116 188.467 90.291C188.467 89.2565 188.863 88.5524 189.656 88.1787C189.301 87.9326 189.014 87.6136 188.795 87.2217C188.576 86.8252 188.467 86.3581 188.467 85.8203C188.467 84.1979 189.326 83.373 191.044 83.3457L196 83.3457L196 84.6104L191.119 84.6104C190.59 84.6104 190.196 84.7311 189.937 84.9727C189.672 85.2142 189.54 85.6198 189.54 86.1895C189.54 86.6589 189.681 87.0485 189.964 87.3584C190.242 87.6683 190.618 87.8483 191.092 87.8984L196 87.8984L196 89.1699L191.153 89.1699C190.078 89.1699 189.54 89.6963 189.54 90.749C189.54 91.5784 189.893 92.1458 190.6 92.4512L196 92.4512L196 93.7158L188.604 93.7158L188.604 92.5195Z" fill="black"/>
<path d="M81.5 179H164" stroke="#232323" stroke-dasharray="3 3"/>
</svg>
