<svg width="216" height="182" viewBox="0 0 216 182" fill="none" xmlns="http://www.w3.org/2000/svg">
<rect x="0.75" y="50.75" width="162.5" height="81.5" stroke="#232323" stroke-width="1.5"/>
<path d="M82 50V133" stroke="#232323" stroke-width="1.5" stroke-dasharray="3 3"/>
<path d="M0.5 40H163.5" stroke="#232323" stroke-dasharray="3 3"/>
<path d="M175 50L175 131" stroke="#232323" stroke-dasharray="3 3"/>
<path d="M0.75 51.5V42.75V34" stroke="#232323" stroke-width="1.5"/>
<path d="M163.25 51.5V42.75V34" stroke="#232323" stroke-width="1.5"/>
<path d="M163 149V140.5V132" stroke="#232323" stroke-width="1.5"/>
<path d="M82 150V141.5V133" stroke="#232323" stroke-width="1.5"/>
<path d="M163 50.7L171.5 50.7L180 50.7" stroke="#232323" stroke-width="1.5"/>
<path d="M163 133L171.5 133L180 133" stroke="#232323" stroke-width="1.5"/>
<path d="M62.166 26.6572H63.5469V27.6895H62.166V30H60.8945V27.6895H56.3623V26.9443L60.8193 20.0469H62.166V26.6572ZM57.7979 26.6572H60.8945V21.7764L60.7441 22.0498L57.7979 26.6572ZM70.9297 25.7549C70.9297 27.236 70.6768 28.3366 70.1709 29.0566C69.665 29.7767 68.8743 30.1367 67.7988 30.1367C66.737 30.1367 65.9508 29.7858 65.4404 29.084C64.93 28.3776 64.6657 27.3249 64.6475 25.9258V24.2373C64.6475 22.7744 64.9004 21.6875 65.4062 20.9766C65.9121 20.2656 66.7051 19.9102 67.7852 19.9102C68.8561 19.9102 69.6445 20.2542 70.1504 20.9424C70.6562 21.626 70.916 22.6833 70.9297 24.1143V25.7549ZM69.665 24.0254C69.665 22.9544 69.5146 22.1751 69.2139 21.6875C68.9131 21.1953 68.4368 20.9492 67.7852 20.9492C67.138 20.9492 66.6663 21.193 66.3701 21.6807C66.0739 22.1683 65.9212 22.918 65.9121 23.9297V25.9531C65.9121 27.0286 66.0671 27.8239 66.377 28.3389C66.6914 28.8493 67.1654 29.1045 67.7988 29.1045C68.4232 29.1045 68.8857 28.863 69.1865 28.3799C69.4919 27.8968 69.6514 27.1357 69.665 26.0967V24.0254ZM78.791 25.7549C78.791 27.236 78.5381 28.3366 78.0322 29.0566C77.5264 29.7767 76.7357 30.1367 75.6602 30.1367C74.5983 30.1367 73.8122 29.7858 73.3018 29.084C72.7913 28.3776 72.527 27.3249 72.5088 25.9258V24.2373C72.5088 22.7744 72.7617 21.6875 73.2676 20.9766C73.7734 20.2656 74.5664 19.9102 75.6465 19.9102C76.7174 19.9102 77.5059 20.2542 78.0117 20.9424C78.5176 21.626 78.7773 22.6833 78.791 24.1143V25.7549ZM77.5264 24.0254C77.5264 22.9544 77.376 22.1751 77.0752 21.6875C76.7744 21.1953 76.2982 20.9492 75.6465 20.9492C74.9993 20.9492 74.5277 21.193 74.2314 21.6807C73.9352 22.1683 73.7826 22.918 73.7734 23.9297V25.9531C73.7734 27.0286 73.9284 27.8239 74.2383 28.3389C74.5527 28.8493 75.0267 29.1045 75.6602 29.1045C76.2845 29.1045 76.7471 28.863 77.0479 28.3799C77.3532 27.8968 77.5127 27.1357 77.5264 26.0967V24.0254ZM85.2031 22.6035L85.2373 23.4238C85.7796 22.7858 86.5111 22.4668 87.4316 22.4668C88.4661 22.4668 89.1702 22.8633 89.5439 23.6562C89.79 23.3008 90.109 23.0137 90.501 22.7949C90.8975 22.5762 91.3646 22.4668 91.9023 22.4668C93.5247 22.4668 94.3496 23.3258 94.377 25.0439V30H93.1123V25.1191C93.1123 24.5905 92.9915 24.1963 92.75 23.9365C92.5085 23.6722 92.1029 23.54 91.5332 23.54C91.0638 23.54 90.6742 23.6813 90.3643 23.9639C90.0544 24.2419 89.8743 24.6178 89.8242 25.0918V30H88.5527V25.1533C88.5527 24.0778 88.0264 23.54 86.9736 23.54C86.1442 23.54 85.5768 23.8932 85.2715 24.5996V30H84.0068V22.6035H85.2031ZM97.4805 22.6035L97.5146 23.4238C98.057 22.7858 98.7884 22.4668 99.709 22.4668C100.743 22.4668 101.448 22.8633 101.821 23.6562C102.067 23.3008 102.386 23.0137 102.778 22.7949C103.175 22.5762 103.642 22.4668 104.18 22.4668C105.802 22.4668 106.627 23.3258 106.654 25.0439V30H105.39V25.1191C105.39 24.5905 105.269 24.1963 105.027 23.9365C104.786 23.6722 104.38 23.54 103.811 23.54C103.341 23.54 102.951 23.6813 102.642 23.9639C102.332 24.2419 102.152 24.6178 102.102 25.0918V30H100.83V25.1533C100.83 24.0778 100.304 23.54 99.251 23.54C98.4215 23.54 97.8542 23.8932 97.5488 24.5996V30H96.2842V22.6035H97.4805Z" fill="black"/>
<path d="M104.349 162H97.8271V161.091L101.272 157.263C101.783 156.684 102.134 156.215 102.325 155.854C102.521 155.49 102.619 155.114 102.619 154.727C102.619 154.207 102.462 153.781 102.147 153.448C101.833 153.116 101.414 152.949 100.89 152.949C100.261 152.949 99.7708 153.129 99.4199 153.489C99.0736 153.845 98.9004 154.341 98.9004 154.979H97.6357C97.6357 154.063 97.9297 153.323 98.5176 152.758C99.11 152.193 99.9007 151.91 100.89 151.91C101.815 151.91 102.546 152.154 103.084 152.642C103.622 153.125 103.891 153.77 103.891 154.576C103.891 155.556 103.266 156.723 102.018 158.076L99.3516 160.968H104.349V162ZM111.93 157.755C111.93 159.236 111.677 160.337 111.171 161.057C110.665 161.777 109.874 162.137 108.799 162.137C107.737 162.137 106.951 161.786 106.44 161.084C105.93 160.378 105.666 159.325 105.647 157.926V156.237C105.647 154.774 105.9 153.688 106.406 152.977C106.912 152.266 107.705 151.91 108.785 151.91C109.856 151.91 110.645 152.254 111.15 152.942C111.656 153.626 111.916 154.683 111.93 156.114V157.755ZM110.665 156.025C110.665 154.954 110.515 154.175 110.214 153.688C109.913 153.195 109.437 152.949 108.785 152.949C108.138 152.949 107.666 153.193 107.37 153.681C107.074 154.168 106.921 154.918 106.912 155.93V157.953C106.912 159.029 107.067 159.824 107.377 160.339C107.691 160.849 108.165 161.104 108.799 161.104C109.423 161.104 109.886 160.863 110.187 160.38C110.492 159.897 110.651 159.136 110.665 158.097V156.025ZM119.791 157.755C119.791 159.236 119.538 160.337 119.032 161.057C118.526 161.777 117.736 162.137 116.66 162.137C115.598 162.137 114.812 161.786 114.302 161.084C113.791 160.378 113.527 159.325 113.509 157.926V156.237C113.509 154.774 113.762 153.688 114.268 152.977C114.773 152.266 115.566 151.91 116.646 151.91C117.717 151.91 118.506 152.254 119.012 152.942C119.518 153.626 119.777 154.683 119.791 156.114V157.755ZM118.526 156.025C118.526 154.954 118.376 154.175 118.075 153.688C117.774 153.195 117.298 152.949 116.646 152.949C115.999 152.949 115.528 153.193 115.231 153.681C114.935 154.168 114.783 154.918 114.773 155.93V157.953C114.773 159.029 114.928 159.824 115.238 160.339C115.553 160.849 116.027 161.104 116.66 161.104C117.285 161.104 117.747 160.863 118.048 160.38C118.353 159.897 118.513 159.136 118.526 158.097V156.025ZM126.203 154.604L126.237 155.424C126.78 154.786 127.511 154.467 128.432 154.467C129.466 154.467 130.17 154.863 130.544 155.656C130.79 155.301 131.109 155.014 131.501 154.795C131.897 154.576 132.365 154.467 132.902 154.467C134.525 154.467 135.35 155.326 135.377 157.044V162H134.112V157.119C134.112 156.59 133.992 156.196 133.75 155.937C133.508 155.672 133.103 155.54 132.533 155.54C132.064 155.54 131.674 155.681 131.364 155.964C131.054 156.242 130.874 156.618 130.824 157.092V162H129.553V157.153C129.553 156.078 129.026 155.54 127.974 155.54C127.144 155.54 126.577 155.893 126.271 156.6V162H125.007V154.604H126.203ZM138.48 154.604L138.515 155.424C139.057 154.786 139.788 154.467 140.709 154.467C141.743 154.467 142.448 154.863 142.821 155.656C143.067 155.301 143.386 155.014 143.778 154.795C144.175 154.576 144.642 154.467 145.18 154.467C146.802 154.467 147.627 155.326 147.654 157.044V162H146.39V157.119C146.39 156.59 146.269 156.196 146.027 155.937C145.786 155.672 145.38 155.54 144.811 155.54C144.341 155.54 143.951 155.681 143.642 155.964C143.332 156.242 143.152 156.618 143.102 157.092V162H141.83V157.153C141.83 156.078 141.304 155.54 140.251 155.54C139.422 155.54 138.854 155.893 138.549 156.6V162H137.284V154.604H138.48Z" fill="black"/>
<path d="M196 109.651L196 116.173L195.091 116.173L191.263 112.728C190.684 112.217 190.215 111.866 189.854 111.675C189.49 111.479 189.114 111.381 188.727 111.381C188.207 111.381 187.781 111.538 187.448 111.853C187.116 112.167 186.949 112.586 186.949 113.11C186.949 113.739 187.129 114.229 187.489 114.58C187.845 114.926 188.341 115.1 188.979 115.1L188.979 116.364C188.063 116.364 187.323 116.07 186.758 115.482C186.193 114.89 185.91 114.099 185.91 113.11C185.91 112.185 186.154 111.454 186.642 110.916C187.125 110.378 187.77 110.109 188.576 110.109C189.556 110.109 190.723 110.734 192.076 111.982L194.968 114.648L194.968 109.651L196 109.651ZM191.755 102.07C193.236 102.07 194.337 102.323 195.057 102.829C195.777 103.335 196.137 104.126 196.137 105.201C196.137 106.263 195.786 107.049 195.084 107.56C194.378 108.07 193.325 108.334 191.926 108.353L190.237 108.353C188.774 108.353 187.687 108.1 186.977 107.594C186.266 107.088 185.91 106.295 185.91 105.215C185.91 104.144 186.254 103.355 186.942 102.85C187.626 102.344 188.683 102.084 190.114 102.07L191.755 102.07ZM190.025 103.335C188.954 103.335 188.175 103.485 187.687 103.786C187.195 104.087 186.949 104.563 186.949 105.215C186.949 105.862 187.193 106.334 187.681 106.63C188.168 106.926 188.918 107.079 189.93 107.088L191.953 107.088C193.029 107.088 193.824 106.933 194.339 106.623C194.849 106.309 195.104 105.835 195.104 105.201C195.104 104.577 194.863 104.114 194.38 103.813C193.897 103.508 193.136 103.349 192.097 103.335L190.025 103.335ZM191.755 94.209C193.236 94.209 194.337 94.4619 195.057 94.9678C195.777 95.4736 196.137 96.2643 196.137 97.3398C196.137 98.4017 195.786 99.1878 195.084 99.6982C194.378 100.209 193.325 100.473 191.926 100.491L190.237 100.491C188.774 100.491 187.687 100.238 186.977 99.7324C186.266 99.2266 185.91 98.4336 185.91 97.3535C185.91 96.2826 186.254 95.4941 186.942 94.9883C187.626 94.4824 188.683 94.2227 190.114 94.209L191.755 94.209ZM190.025 95.4736C188.954 95.4736 188.175 95.624 187.687 95.9248C187.195 96.2256 186.949 96.7018 186.949 97.3535C186.949 98.0007 187.193 98.4723 187.681 98.7686C188.168 99.0648 188.918 99.2174 189.93 99.2266L191.953 99.2266C193.029 99.2266 193.824 99.0716 194.339 98.7617C194.849 98.4473 195.104 97.9733 195.104 97.3398C195.104 96.7155 194.863 96.2529 194.38 95.9521C193.897 95.6468 193.136 95.4873 192.097 95.4736L190.025 95.4736ZM188.604 87.7969L189.424 87.7627C188.786 87.2204 188.467 86.4889 188.467 85.5684C188.467 84.5339 188.863 83.8298 189.656 83.4561C189.301 83.21 189.014 82.8909 188.795 82.499C188.576 82.1025 188.467 81.6354 188.467 81.0977C188.467 79.4753 189.326 78.6504 191.044 78.623L196 78.623L196 79.8877L191.119 79.8877C190.59 79.8877 190.196 80.0085 189.937 80.25C189.672 80.4915 189.54 80.8971 189.54 81.4668C189.54 81.9362 189.681 82.3258 189.964 82.6357C190.242 82.9456 190.618 83.1256 191.092 83.1758L196 83.1758L196 84.4473L191.153 84.4473C190.078 84.4473 189.54 84.9736 189.54 86.0264C189.54 86.8558 189.893 87.4232 190.6 87.7285L196 87.7285L196 88.9932L188.604 88.9932L188.604 87.7969ZM188.604 75.5195L189.424 75.4854C188.786 74.943 188.467 74.2116 188.467 73.291C188.467 72.2565 188.863 71.5524 189.656 71.1787C189.301 70.9326 189.014 70.6136 188.795 70.2217C188.576 69.8252 188.467 69.3581 188.467 68.8203C188.467 67.1979 189.326 66.373 191.044 66.3457L196 66.3457L196 67.6104L191.119 67.6104C190.59 67.6104 190.196 67.7311 189.937 67.9727C189.672 68.2142 189.54 68.6198 189.54 69.1895C189.54 69.6589 189.681 70.0485 189.964 70.3584C190.242 70.6683 190.618 70.8483 191.092 70.8984L196 70.8984L196 72.1699L191.153 72.1699C190.078 72.1699 189.54 72.6963 189.54 73.749C189.54 74.5784 189.893 75.1458 190.6 75.4512L196 75.4512L196 76.7158L188.604 76.7158L188.604 75.5195Z" fill="black"/>
<path d="M82 144H164" stroke="#232323" stroke-dasharray="3 3"/>
</svg>
