<svg width="216" height="221" viewBox="0 0 216 221" fill="none" xmlns="http://www.w3.org/2000/svg">
<rect x="0.75" y="50.75" width="162.5" height="116.5" stroke="#232323" stroke-width="1.5"/>
<path d="M82 50V168" stroke="#232323" stroke-width="1.5" stroke-dasharray="3 3"/>
<path d="M0.5 40H163.5" stroke="#232323" stroke-dasharray="3 3"/>
<path d="M175 50L175 167" stroke="#232323" stroke-dasharray="3 3"/>
<path d="M0.75 51.5V42.75V34" stroke="#232323" stroke-width="1.5"/>
<path d="M163.25 51.5V42.75V34" stroke="#232323" stroke-width="1.5"/>
<path d="M163.25 183.5V174.75V166" stroke="#232323" stroke-width="1.5"/>
<path d="M82.25 184.5V175.75V167" stroke="#232323" stroke-width="1.5"/>
<path d="M163 50.7L171.5 50.7L180 50.7" stroke="#232323" stroke-width="1.5"/>
<path d="M163 167.7L171.5 167.7L180 167.7" stroke="#232323" stroke-width="1.5"/>
<path d="M62.166 26.6572H63.5469V27.6895H62.166V30H60.8945V27.6895H56.3623V26.9443L60.8193 20.0469H62.166V26.6572ZM57.7979 26.6572H60.8945V21.7764L60.7441 22.0498L57.7979 26.6572ZM71.21 30H64.6885V29.0908L68.1338 25.2627C68.6442 24.6839 68.9951 24.2145 69.1865 23.8545C69.3825 23.4899 69.4805 23.1139 69.4805 22.7266C69.4805 22.207 69.3232 21.7809 69.0088 21.4482C68.6943 21.1156 68.2751 20.9492 67.751 20.9492C67.1221 20.9492 66.6322 21.1292 66.2812 21.4893C65.9349 21.8447 65.7617 22.3415 65.7617 22.9795H64.4971C64.4971 22.0635 64.791 21.3229 65.3789 20.7578C65.9714 20.1927 66.762 19.9102 67.751 19.9102C68.6761 19.9102 69.4076 20.154 69.9453 20.6416C70.4831 21.1247 70.752 21.7695 70.752 22.5762C70.752 23.556 70.1276 24.7227 68.8789 26.0762L66.2129 28.9678H71.21V30ZM78.791 25.7549C78.791 27.236 78.5381 28.3366 78.0322 29.0566C77.5264 29.7767 76.7357 30.1367 75.6602 30.1367C74.5983 30.1367 73.8122 29.7858 73.3018 29.084C72.7913 28.3776 72.527 27.3249 72.5088 25.9258V24.2373C72.5088 22.7744 72.7617 21.6875 73.2676 20.9766C73.7734 20.2656 74.5664 19.9102 75.6465 19.9102C76.7174 19.9102 77.5059 20.2542 78.0117 20.9424C78.5176 21.626 78.7773 22.6833 78.791 24.1143V25.7549ZM77.5264 24.0254C77.5264 22.9544 77.376 22.1751 77.0752 21.6875C76.7744 21.1953 76.2982 20.9492 75.6465 20.9492C74.9993 20.9492 74.5277 21.193 74.2314 21.6807C73.9352 22.1683 73.7826 22.918 73.7734 23.9297V25.9531C73.7734 27.0286 73.9284 27.8239 74.2383 28.3389C74.5527 28.8493 75.0267 29.1045 75.6602 29.1045C76.2845 29.1045 76.7471 28.863 77.0479 28.3799C77.3532 27.8968 77.5127 27.1357 77.5264 26.0967V24.0254ZM85.2031 22.6035L85.2373 23.4238C85.7796 22.7858 86.5111 22.4668 87.4316 22.4668C88.4661 22.4668 89.1702 22.8633 89.5439 23.6562C89.79 23.3008 90.109 23.0137 90.501 22.7949C90.8975 22.5762 91.3646 22.4668 91.9023 22.4668C93.5247 22.4668 94.3496 23.3258 94.377 25.0439V30H93.1123V25.1191C93.1123 24.5905 92.9915 24.1963 92.75 23.9365C92.5085 23.6722 92.1029 23.54 91.5332 23.54C91.0638 23.54 90.6742 23.6813 90.3643 23.9639C90.0544 24.2419 89.8743 24.6178 89.8242 25.0918V30H88.5527V25.1533C88.5527 24.0778 88.0264 23.54 86.9736 23.54C86.1442 23.54 85.5768 23.8932 85.2715 24.5996V30H84.0068V22.6035H85.2031ZM97.4805 22.6035L97.5146 23.4238C98.057 22.7858 98.7884 22.4668 99.709 22.4668C100.743 22.4668 101.448 22.8633 101.821 23.6562C102.067 23.3008 102.386 23.0137 102.778 22.7949C103.175 22.5762 103.642 22.4668 104.18 22.4668C105.802 22.4668 106.627 23.3258 106.654 25.0439V30H105.39V25.1191C105.39 24.5905 105.269 24.1963 105.027 23.9365C104.786 23.6722 104.38 23.54 103.811 23.54C103.341 23.54 102.951 23.6813 102.642 23.9639C102.332 24.2419 102.152 24.6178 102.102 25.0918V30H100.83V25.1533C100.83 24.0778 100.304 23.54 99.251 23.54C98.4215 23.54 97.8542 23.8932 97.5488 24.5996V30H96.2842V22.6035H97.4805Z" fill="#232323"/>
<path d="M104.349 201H97.8271V200.091L101.272 196.263C101.783 195.684 102.134 195.215 102.325 194.854C102.521 194.49 102.619 194.114 102.619 193.727C102.619 193.207 102.462 192.781 102.147 192.448C101.833 192.116 101.414 191.949 100.89 191.949C100.261 191.949 99.7708 192.129 99.4199 192.489C99.0736 192.845 98.9004 193.341 98.9004 193.979H97.6357C97.6357 193.063 97.9297 192.323 98.5176 191.758C99.11 191.193 99.9007 190.91 100.89 190.91C101.815 190.91 102.546 191.154 103.084 191.642C103.622 192.125 103.891 192.77 103.891 193.576C103.891 194.556 103.266 195.723 102.018 197.076L99.3516 199.968H104.349V201ZM109.845 201H108.573V192.571L106.023 193.508V192.359L109.646 190.999H109.845V201ZM119.791 196.755C119.791 198.236 119.538 199.337 119.032 200.057C118.526 200.777 117.736 201.137 116.66 201.137C115.598 201.137 114.812 200.786 114.302 200.084C113.791 199.378 113.527 198.325 113.509 196.926V195.237C113.509 193.774 113.762 192.688 114.268 191.977C114.773 191.266 115.566 190.91 116.646 190.91C117.717 190.91 118.506 191.254 119.012 191.942C119.518 192.626 119.777 193.683 119.791 195.114V196.755ZM118.526 195.025C118.526 193.954 118.376 193.175 118.075 192.688C117.774 192.195 117.298 191.949 116.646 191.949C115.999 191.949 115.528 192.193 115.231 192.681C114.935 193.168 114.783 193.918 114.773 194.93V196.953C114.773 198.029 114.928 198.824 115.238 199.339C115.553 199.849 116.027 200.104 116.66 200.104C117.285 200.104 117.747 199.863 118.048 199.38C118.353 198.897 118.513 198.136 118.526 197.097V195.025ZM126.203 193.604L126.237 194.424C126.78 193.786 127.511 193.467 128.432 193.467C129.466 193.467 130.17 193.863 130.544 194.656C130.79 194.301 131.109 194.014 131.501 193.795C131.897 193.576 132.365 193.467 132.902 193.467C134.525 193.467 135.35 194.326 135.377 196.044V201H134.112V196.119C134.112 195.59 133.992 195.196 133.75 194.937C133.508 194.672 133.103 194.54 132.533 194.54C132.064 194.54 131.674 194.681 131.364 194.964C131.054 195.242 130.874 195.618 130.824 196.092V201H129.553V196.153C129.553 195.078 129.026 194.54 127.974 194.54C127.144 194.54 126.577 194.893 126.271 195.6V201H125.007V193.604H126.203ZM138.48 193.604L138.515 194.424C139.057 193.786 139.788 193.467 140.709 193.467C141.743 193.467 142.448 193.863 142.821 194.656C143.067 194.301 143.386 194.014 143.778 193.795C144.175 193.576 144.642 193.467 145.18 193.467C146.802 193.467 147.627 194.326 147.654 196.044V201H146.39V196.119C146.39 195.59 146.269 195.196 146.027 194.937C145.786 194.672 145.38 194.54 144.811 194.54C144.341 194.54 143.951 194.681 143.642 194.964C143.332 195.242 143.152 195.618 143.102 196.092V201H141.83V196.153C141.83 195.078 141.304 194.54 140.251 194.54C139.422 194.54 138.854 194.893 138.549 195.6V201H137.284V193.604H138.48Z" fill="#232323"/>
<path d="M196 126.651L196 133.173L195.091 133.173L191.263 129.728C190.684 129.217 190.215 128.866 189.854 128.675C189.49 128.479 189.114 128.381 188.727 128.381C188.207 128.381 187.781 128.538 187.448 128.853C187.116 129.167 186.949 129.586 186.949 130.11C186.949 130.739 187.129 131.229 187.489 131.58C187.845 131.926 188.341 132.1 188.979 132.1L188.979 133.364C188.063 133.364 187.323 133.07 186.758 132.482C186.193 131.89 185.91 131.099 185.91 130.11C185.91 129.185 186.154 128.454 186.642 127.916C187.125 127.378 187.77 127.109 188.576 127.109C189.556 127.109 190.723 127.734 192.076 128.982L194.968 131.648L194.968 126.651L196 126.651ZM191.625 120.465C191.939 120.729 192.192 121.046 192.384 121.415C192.575 121.78 192.671 122.181 192.671 122.618C192.671 123.192 192.53 123.694 192.247 124.122C191.965 124.546 191.568 124.874 191.058 125.106C190.543 125.339 189.975 125.455 189.355 125.455C188.69 125.455 188.091 125.33 187.558 125.079C187.024 124.824 186.617 124.464 186.334 123.999C186.051 123.534 185.91 122.992 185.91 122.372C185.91 121.388 186.279 120.613 187.018 120.048C187.751 119.478 188.754 119.193 190.025 119.193L190.395 119.193C192.331 119.193 193.746 119.576 194.64 120.342C195.528 121.107 195.984 122.263 196.007 123.808L196.007 124.054L194.94 124.054L194.94 123.787C194.922 122.743 194.651 121.941 194.127 121.381C193.598 120.82 192.764 120.515 191.625 120.465ZM191.625 122.413C191.625 121.989 191.495 121.6 191.235 121.244C190.976 120.884 190.654 120.622 190.271 120.458L189.766 120.458C188.936 120.458 188.262 120.638 187.742 120.998C187.223 121.358 186.963 121.814 186.963 122.365C186.963 122.921 187.177 123.368 187.605 123.705C188.029 124.042 188.59 124.211 189.287 124.211C189.966 124.211 190.527 124.049 190.969 123.726C191.406 123.397 191.625 122.96 191.625 122.413ZM186.758 111.024L196 115.146L196 116.473L187.086 112.364L187.086 117.751L186.047 117.751L186.047 111.024L186.758 111.024ZM188.604 104.797L189.424 104.763C188.786 104.22 188.467 103.489 188.467 102.568C188.467 101.534 188.863 100.83 189.656 100.456C189.301 100.21 189.014 99.8909 188.795 99.499C188.576 99.1025 188.467 98.6354 188.467 98.0977C188.467 96.4753 189.326 95.6504 191.044 95.623L196 95.623L196 96.8877L191.119 96.8877C190.59 96.8877 190.196 97.0085 189.937 97.25C189.672 97.4915 189.54 97.8971 189.54 98.4668C189.54 98.9362 189.681 99.3258 189.964 99.6357C190.242 99.9456 190.618 100.126 191.092 100.176L196 100.176L196 101.447L191.153 101.447C190.078 101.447 189.54 101.974 189.54 103.026C189.54 103.856 189.893 104.423 190.6 104.729L196 104.729L196 105.993L188.604 105.993L188.604 104.797ZM188.604 92.5195L189.424 92.4854C188.786 91.943 188.467 91.2116 188.467 90.291C188.467 89.2565 188.863 88.5524 189.656 88.1787C189.301 87.9326 189.014 87.6136 188.795 87.2217C188.576 86.8252 188.467 86.3581 188.467 85.8203C188.467 84.1979 189.326 83.373 191.044 83.3457L196 83.3457L196 84.6104L191.119 84.6104C190.59 84.6104 190.196 84.7311 189.937 84.9727C189.672 85.2142 189.54 85.6198 189.54 86.1895C189.54 86.6589 189.681 87.0485 189.964 87.3584C190.242 87.6683 190.618 87.8483 191.092 87.8984L196 87.8984L196 89.1699L191.153 89.1699C190.078 89.1699 189.54 89.6963 189.54 90.749C189.54 91.5784 189.893 92.1458 190.6 92.4512L196 92.4512L196 93.7158L188.604 93.7158L188.604 92.5195Z" fill="#232323"/>
<path d="M81.5 179H164" stroke="#232323" stroke-dasharray="3 3"/>
</svg>
