<svg width="216" height="174" viewBox="0 0 216 174" fill="none" xmlns="http://www.w3.org/2000/svg">
<rect x="0.75" y="50.75" width="162.5" height="72.5" stroke="#232323" stroke-width="1.5"/>
<path d="M82 50V124" stroke="#232323" stroke-width="1.5" stroke-dasharray="3 3"/>
<path d="M0.5 40H163.5" stroke="#232323" stroke-dasharray="3 3"/>
<path d="M175 50L175 131" stroke="#232323" stroke-dasharray="3 3"/>
<path d="M0.75 51.5V42.75V34" stroke="#232323" stroke-width="1.5"/>
<path d="M163.25 51.5V42.75V34" stroke="#232323" stroke-width="1.5"/>
<path d="M163 138V130.5V123" stroke="#232323" stroke-width="1.5"/>
<path d="M82 139V131.5V124" stroke="#232323" stroke-width="1.5"/>
<path d="M163 50.7L171.5 50.7L180 50.7" stroke="#232323" stroke-width="1.5"/>
<path d="M163 124L171.5 124L180 124" stroke="#232323" stroke-width="1.5"/>
<path d="M62.166 26.6572H63.5469V27.6895H62.166V30H60.8945V27.6895H56.3623V26.9443L60.8193 20.0469H62.166V26.6572ZM57.7979 26.6572H60.8945V21.7764L60.7441 22.0498L57.7979 26.6572ZM70.9297 25.7549C70.9297 27.236 70.6768 28.3366 70.1709 29.0566C69.665 29.7767 68.8743 30.1367 67.7988 30.1367C66.737 30.1367 65.9508 29.7858 65.4404 29.084C64.93 28.3776 64.6657 27.3249 64.6475 25.9258V24.2373C64.6475 22.7744 64.9004 21.6875 65.4062 20.9766C65.9121 20.2656 66.7051 19.9102 67.7852 19.9102C68.8561 19.9102 69.6445 20.2542 70.1504 20.9424C70.6562 21.626 70.916 22.6833 70.9297 24.1143V25.7549ZM69.665 24.0254C69.665 22.9544 69.5146 22.1751 69.2139 21.6875C68.9131 21.1953 68.4368 20.9492 67.7852 20.9492C67.138 20.9492 66.6663 21.193 66.3701 21.6807C66.0739 22.1683 65.9212 22.918 65.9121 23.9297V25.9531C65.9121 27.0286 66.0671 27.8239 66.377 28.3389C66.6914 28.8493 67.1654 29.1045 67.7988 29.1045C68.4232 29.1045 68.8857 28.863 69.1865 28.3799C69.4919 27.8968 69.6514 27.1357 69.665 26.0967V24.0254ZM78.791 25.7549C78.791 27.236 78.5381 28.3366 78.0322 29.0566C77.5264 29.7767 76.7357 30.1367 75.6602 30.1367C74.5983 30.1367 73.8122 29.7858 73.3018 29.084C72.7913 28.3776 72.527 27.3249 72.5088 25.9258V24.2373C72.5088 22.7744 72.7617 21.6875 73.2676 20.9766C73.7734 20.2656 74.5664 19.9102 75.6465 19.9102C76.7174 19.9102 77.5059 20.2542 78.0117 20.9424C78.5176 21.626 78.7773 22.6833 78.791 24.1143V25.7549ZM77.5264 24.0254C77.5264 22.9544 77.376 22.1751 77.0752 21.6875C76.7744 21.1953 76.2982 20.9492 75.6465 20.9492C74.9993 20.9492 74.5277 21.193 74.2314 21.6807C73.9352 22.1683 73.7826 22.918 73.7734 23.9297V25.9531C73.7734 27.0286 73.9284 27.8239 74.2383 28.3389C74.5527 28.8493 75.0267 29.1045 75.6602 29.1045C76.2845 29.1045 76.7471 28.863 77.0479 28.3799C77.3532 27.8968 77.5127 27.1357 77.5264 26.0967V24.0254ZM85.2031 22.6035L85.2373 23.4238C85.7796 22.7858 86.5111 22.4668 87.4316 22.4668C88.4661 22.4668 89.1702 22.8633 89.5439 23.6562C89.79 23.3008 90.109 23.0137 90.501 22.7949C90.8975 22.5762 91.3646 22.4668 91.9023 22.4668C93.5247 22.4668 94.3496 23.3258 94.377 25.0439V30H93.1123V25.1191C93.1123 24.5905 92.9915 24.1963 92.75 23.9365C92.5085 23.6722 92.1029 23.54 91.5332 23.54C91.0638 23.54 90.6742 23.6813 90.3643 23.9639C90.0544 24.2419 89.8743 24.6178 89.8242 25.0918V30H88.5527V25.1533C88.5527 24.0778 88.0264 23.54 86.9736 23.54C86.1442 23.54 85.5768 23.8932 85.2715 24.5996V30H84.0068V22.6035H85.2031ZM97.4805 22.6035L97.5146 23.4238C98.057 22.7858 98.7884 22.4668 99.709 22.4668C100.743 22.4668 101.448 22.8633 101.821 23.6562C102.067 23.3008 102.386 23.0137 102.778 22.7949C103.175 22.5762 103.642 22.4668 104.18 22.4668C105.802 22.4668 106.627 23.3258 106.654 25.0439V30H105.39V25.1191C105.39 24.5905 105.269 24.1963 105.027 23.9365C104.786 23.6722 104.38 23.54 103.811 23.54C103.341 23.54 102.951 23.6813 102.642 23.9639C102.332 24.2419 102.152 24.6178 102.102 25.0918V30H100.83V25.1533C100.83 24.0778 100.304 23.54 99.251 23.54C98.4215 23.54 97.8542 23.8932 97.5488 24.5996V30H96.2842V22.6035H97.4805Z" fill="black"/>
<path d="M104.349 154H97.8271V153.091L101.272 149.263C101.783 148.684 102.134 148.215 102.325 147.854C102.521 147.49 102.619 147.114 102.619 146.727C102.619 146.207 102.462 145.781 102.147 145.448C101.833 145.116 101.414 144.949 100.89 144.949C100.261 144.949 99.7708 145.129 99.4199 145.489C99.0736 145.845 98.9004 146.341 98.9004 146.979H97.6357C97.6357 146.063 97.9297 145.323 98.5176 144.758C99.11 144.193 99.9007 143.91 100.89 143.91C101.815 143.91 102.546 144.154 103.084 144.642C103.622 145.125 103.891 145.77 103.891 146.576C103.891 147.556 103.266 148.723 102.018 150.076L99.3516 152.968H104.349V154ZM111.93 149.755C111.93 151.236 111.677 152.337 111.171 153.057C110.665 153.777 109.874 154.137 108.799 154.137C107.737 154.137 106.951 153.786 106.44 153.084C105.93 152.378 105.666 151.325 105.647 149.926V148.237C105.647 146.774 105.9 145.688 106.406 144.977C106.912 144.266 107.705 143.91 108.785 143.91C109.856 143.91 110.645 144.254 111.15 144.942C111.656 145.626 111.916 146.683 111.93 148.114V149.755ZM110.665 148.025C110.665 146.954 110.515 146.175 110.214 145.688C109.913 145.195 109.437 144.949 108.785 144.949C108.138 144.949 107.666 145.193 107.37 145.681C107.074 146.168 106.921 146.918 106.912 147.93V149.953C106.912 151.029 107.067 151.824 107.377 152.339C107.691 152.849 108.165 153.104 108.799 153.104C109.423 153.104 109.886 152.863 110.187 152.38C110.492 151.897 110.651 151.136 110.665 150.097V148.025ZM119.791 149.755C119.791 151.236 119.538 152.337 119.032 153.057C118.526 153.777 117.736 154.137 116.66 154.137C115.598 154.137 114.812 153.786 114.302 153.084C113.791 152.378 113.527 151.325 113.509 149.926V148.237C113.509 146.774 113.762 145.688 114.268 144.977C114.773 144.266 115.566 143.91 116.646 143.91C117.717 143.91 118.506 144.254 119.012 144.942C119.518 145.626 119.777 146.683 119.791 148.114V149.755ZM118.526 148.025C118.526 146.954 118.376 146.175 118.075 145.688C117.774 145.195 117.298 144.949 116.646 144.949C115.999 144.949 115.528 145.193 115.231 145.681C114.935 146.168 114.783 146.918 114.773 147.93V149.953C114.773 151.029 114.928 151.824 115.238 152.339C115.553 152.849 116.027 153.104 116.66 153.104C117.285 153.104 117.747 152.863 118.048 152.38C118.353 151.897 118.513 151.136 118.526 150.097V148.025ZM126.203 146.604L126.237 147.424C126.78 146.786 127.511 146.467 128.432 146.467C129.466 146.467 130.17 146.863 130.544 147.656C130.79 147.301 131.109 147.014 131.501 146.795C131.897 146.576 132.365 146.467 132.902 146.467C134.525 146.467 135.35 147.326 135.377 149.044V154H134.112V149.119C134.112 148.59 133.992 148.196 133.75 147.937C133.508 147.672 133.103 147.54 132.533 147.54C132.064 147.54 131.674 147.681 131.364 147.964C131.054 148.242 130.874 148.618 130.824 149.092V154H129.553V149.153C129.553 148.078 129.026 147.54 127.974 147.54C127.144 147.54 126.577 147.893 126.271 148.6V154H125.007V146.604H126.203ZM138.48 146.604L138.515 147.424C139.057 146.786 139.788 146.467 140.709 146.467C141.743 146.467 142.448 146.863 142.821 147.656C143.067 147.301 143.386 147.014 143.778 146.795C144.175 146.576 144.642 146.467 145.18 146.467C146.802 146.467 147.627 147.326 147.654 149.044V154H146.39V149.119C146.39 148.59 146.269 148.196 146.027 147.937C145.786 147.672 145.38 147.54 144.811 147.54C144.341 147.54 143.951 147.681 143.642 147.964C143.332 148.242 143.152 148.618 143.102 149.092V154H141.83V149.153C141.83 148.078 141.304 147.54 140.251 147.54C139.422 147.54 138.854 147.893 138.549 148.6V154H137.284V146.604H138.48Z" fill="black"/>
<path d="M196 112.017L196 113.288L187.571 113.288L188.508 115.838L187.359 115.838L185.999 112.215L185.999 112.017L196 112.017ZM191.755 102.07C193.236 102.07 194.337 102.323 195.057 102.829C195.777 103.335 196.137 104.126 196.137 105.201C196.137 106.263 195.786 107.049 195.084 107.56C194.378 108.07 193.325 108.334 191.926 108.353L190.237 108.353C188.774 108.353 187.687 108.1 186.977 107.594C186.266 107.088 185.91 106.295 185.91 105.215C185.91 104.144 186.254 103.355 186.942 102.85C187.626 102.344 188.683 102.084 190.114 102.07L191.755 102.07ZM190.025 103.335C188.954 103.335 188.175 103.485 187.687 103.786C187.195 104.087 186.949 104.563 186.949 105.215C186.949 105.862 187.193 106.334 187.681 106.63C188.168 106.926 188.918 107.079 189.93 107.088L191.953 107.088C193.029 107.088 193.824 106.933 194.339 106.623C194.849 106.309 195.104 105.835 195.104 105.201C195.104 104.577 194.863 104.114 194.38 103.813C193.897 103.508 193.136 103.349 192.097 103.335L190.025 103.335ZM191.755 94.209C193.236 94.209 194.337 94.4619 195.057 94.9678C195.777 95.4736 196.137 96.2643 196.137 97.3398C196.137 98.4017 195.786 99.1878 195.084 99.6982C194.378 100.209 193.325 100.473 191.926 100.491L190.237 100.491C188.774 100.491 187.687 100.238 186.977 99.7324C186.266 99.2266 185.91 98.4336 185.91 97.3535C185.91 96.2826 186.254 95.4941 186.942 94.9883C187.626 94.4824 188.683 94.2227 190.114 94.209L191.755 94.209ZM190.025 95.4736C188.954 95.4736 188.175 95.624 187.687 95.9248C187.195 96.2256 186.949 96.7018 186.949 97.3535C186.949 98.0007 187.193 98.4723 187.681 98.7686C188.168 99.0648 188.918 99.2174 189.93 99.2266L191.953 99.2266C193.029 99.2266 193.824 99.0716 194.339 98.7617C194.849 98.4473 195.104 97.9733 195.104 97.3398C195.104 96.7155 194.863 96.2529 194.38 95.9521C193.897 95.6468 193.136 95.4873 192.097 95.4736L190.025 95.4736ZM188.604 87.7969L189.424 87.7627C188.786 87.2204 188.467 86.4889 188.467 85.5684C188.467 84.5339 188.863 83.8298 189.656 83.4561C189.301 83.21 189.014 82.8909 188.795 82.499C188.576 82.1025 188.467 81.6354 188.467 81.0977C188.467 79.4753 189.326 78.6504 191.044 78.623L196 78.623L196 79.8877L191.119 79.8877C190.59 79.8877 190.196 80.0085 189.937 80.25C189.672 80.4915 189.54 80.8971 189.54 81.4668C189.54 81.9362 189.681 82.3258 189.964 82.6357C190.242 82.9456 190.618 83.1256 191.092 83.1758L196 83.1758L196 84.4473L191.153 84.4473C190.078 84.4473 189.54 84.9736 189.54 86.0264C189.54 86.8558 189.893 87.4232 190.6 87.7285L196 87.7285L196 88.9932L188.604 88.9932L188.604 87.7969ZM188.604 75.5195L189.424 75.4854C188.786 74.943 188.467 74.2116 188.467 73.291C188.467 72.2565 188.863 71.5524 189.656 71.1787C189.301 70.9326 189.014 70.6136 188.795 70.2217C188.576 69.8252 188.467 69.3581 188.467 68.8203C188.467 67.1979 189.326 66.373 191.044 66.3457L196 66.3457L196 67.6104L191.119 67.6104C190.59 67.6104 190.196 67.7311 189.937 67.9727C189.672 68.2142 189.54 68.6198 189.54 69.1895C189.54 69.6589 189.681 70.0485 189.964 70.3584C190.242 70.6683 190.618 70.8483 191.092 70.8984L196 70.8984L196 72.1699L191.153 72.1699C190.078 72.1699 189.54 72.6963 189.54 73.749C189.54 74.5784 189.893 75.1458 190.6 75.4512L196 75.4512L196 76.7158L188.604 76.7158L188.604 75.5195Z" fill="black"/>
<path d="M82 134H164" stroke="#232323" stroke-dasharray="3 3"/>
</svg>
