<svg width="52" height="52" viewBox="0 0 52 52" fill="none" xmlns="http://www.w3.org/2000/svg">
<g clip-path="url(#clip0)">
<path d="M15.0678 13.3697C15.2286 13.368 15.3876 13.3344 15.5354 13.271C15.6832 13.2075 15.817 13.1154 15.929 13L24.7812 4.16004V36.9688C24.7812 37.292 24.9096 37.602 25.1382 37.8306C25.3668 38.0591 25.6768 38.1875 26 38.1875C26.3232 38.1875 26.6332 38.0591 26.8618 37.8306C27.0903 37.602 27.2187 37.292 27.2187 36.9688V4.16004L36.0709 13C36.3054 13.1825 36.5984 13.273 36.895 13.2546C37.1915 13.2362 37.4711 13.1101 37.6812 12.9C37.8913 12.6899 38.0174 12.4103 38.0358 12.1138C38.0542 11.8172 37.9637 11.5242 37.7812 11.2897L26.8612 0.357537C26.8042 0.299997 26.7416 0.248283 26.6744 0.203162L26.5809 0.154412C26.5428 0.131976 26.5035 0.111633 26.4631 0.0934745C26.4219 0.0776622 26.3799 0.0641005 26.3372 0.0528495L26.2397 0.024412C26.0815 -0.00732355 25.9185 -0.00732355 25.7603 0.024412L25.6587 0.056912C25.616 0.068108 25.574 0.0816706 25.5328 0.097537C25.4924 0.115696 25.4531 0.136039 25.415 0.158475L25.3256 0.203162C25.2583 0.248283 25.1957 0.299997 25.1387 0.357537L14.2187 11.2897C14.0485 11.4602 13.9326 11.6772 13.8857 11.9135C13.8387 12.1498 13.8629 12.3947 13.955 12.6172C14.0472 12.8398 14.2032 13.0301 14.4034 13.164C14.6037 13.2979 14.8391 13.3695 15.08 13.3697H15.0678Z" fill="#DFDFDF"/>
<path d="M50.7812 35.75C50.458 35.75 50.148 35.8784 49.9195 36.107C49.6909 36.3355 49.5625 36.6455 49.5625 36.9688V45.9062C49.5625 46.8759 49.1773 47.8059 48.4916 48.4916C47.8059 49.1773 46.8759 49.5625 45.9062 49.5625H6.09375C5.12405 49.5625 4.19407 49.1773 3.50839 48.4916C2.82271 47.8059 2.4375 46.8759 2.4375 45.9062V36.9688C2.4375 36.6455 2.3091 36.3355 2.08054 36.107C1.85198 35.8784 1.54198 35.75 1.21875 35.75C0.895517 35.75 0.585524 35.8784 0.356964 36.107C0.128404 36.3355 0 36.6455 0 36.9688L0 45.9062C0 47.5224 0.642018 49.0724 1.78482 50.2152C2.92762 51.358 4.47759 52 6.09375 52H45.9062C47.5224 52 49.0724 51.358 50.2152 50.2152C51.358 49.0724 52 47.5224 52 45.9062V36.9688C52 36.6455 51.8716 36.3355 51.643 36.107C51.4145 35.8784 51.1045 35.75 50.7812 35.75Z" fill="#DFDFDF"/>
</g>
<defs>
<clipPath id="clip0">
<rect width="52" height="52" fill="white"/>
</clipPath>
</defs>
</svg>
