<svg width="52" height="52" fill="none" xmlns="http://www.w3.org/2000/svg"><path d="M45.933 15.6h-3.466V3.467A3.477 3.477 0 0039 0H13a3.477 3.477 0 00-3.467 3.467V15.6H6.067c-2.947 0-5.2 2.253-5.2 5.2v15.6c0 2.947 2.253 5.2 5.2 5.2h3.466v6.933A3.477 3.477 0 0013 52h26a3.477 3.477 0 003.467-3.467V41.6h3.466c2.947 0 5.2-2.253 5.2-5.2V20.8c0-2.947-2.253-5.2-5.2-5.2zM11.267 3.467c0-.867.693-1.734 1.733-1.734h26c.867 0 1.733.694 1.733 1.734V15.6H11.267V3.467zm29.466 45.066c0 .867-.693 1.734-1.733 1.734H13c-.867 0-1.733-.694-1.733-1.734V36.4h29.466v12.133zM49.4 36.4a3.477 3.477 0 01-3.467 3.467h-3.466v-5.2H9.533v5.2H6.067A3.477 3.477 0 012.6 36.4V20.8a3.477 3.477 0 013.467-3.467h39.866A3.477 3.477 0 0149.4 20.8v15.6z" fill="#232323"/><path d="M43.053 22H38c-.553 0-1 .45-1 1s.45 1 1 1h5.053c.552 0 1-.45 1-1s-.45-1-1-1zM22.5 44l.498-.56-.498-.444-.498.443.498.561zm-4.002 4.56l4.5-4-.996-1.12-4.5 4 .996 1.12zm3.504-4l4.5 4 .996-1.12-4.5-4-.996 1.12zM30.5 41l.494-.564-.498-.436-.494.44.498.56zm-4.002 4.56l4.5-4-.996-1.12-4.5 4 .996 1.12zm3.508-3.996l8 7 .988-1.128-8-7-.988 1.128z" fill="#232323"/><circle cx="15.5" cy="40.5" r="1.75" stroke="#232323" stroke-width="1.5"/></svg>