<svg width="55" height="54" fill="none" xmlns="http://www.w3.org/2000/svg"><path d="M53.5 10h-9V5H17m27.5 10.5h9V53h-9m0-37.5v-4H17.068m27.432 4v5m0 32.5h-27m27 0V42.25M17.5 53h-9V5H17m.5 48l-.112-10.75M17 5l.068 6.5m0 0l.093 9m27.339 0H17.162m27.338 0v11m-27.338-11l.114 11m0 0H44.5m-27.224 0l.112 10.75M44.5 31.5v10.75m0 0H17.388M21 5V1h9v4M8.5 20.5L1 13m7.5 18L1 23.5" stroke="#000" stroke-width="1.5"/><rect x="20.375" y="15.375" width="8.25" height=".75" rx=".375" stroke="#232323" stroke-width=".75"/><rect x="26" y="24" width="9" height="1.5" rx=".75" fill="#232323"/><rect x="26" y="35" width="9" height="1.5" rx=".75" fill="#232323"/><rect x="26" y="46" width="9" height="1.5" rx=".75" fill="#232323"/><circle cx="31.75" cy="15.75" r=".75" fill="#232323"/><circle cx="34.75" cy="15.75" r=".75" fill="#232323"/><circle cx="37.75" cy="15.75" r=".75" fill="#232323"/><circle cx="40.75" cy="15.75" r=".75" fill="#232323"/></svg>