<svg width="61" height="61" fill="none" xmlns="http://www.w3.org/2000/svg"><path d="M53.375 34.288a.953.953 0 00-.953.953v6.678h-1.516a6.024 6.024 0 00-11.972 0H19.063V14.28h33.359v2.997a.953.953 0 101.906 0v-3.95a.953.953 0 00-.953-.954H18.109a.953.953 0 00-.953.954v.953H6.241a4.34 4.34 0 00-4.335 4.334v1.384c0 .527.427.954.953.954h1.109l-.727 8.735A4.332 4.332 0 000 33.863v8.056c0 .527.427.953.953.953h1.93a6.19 6.19 0 0012.343 0c.009 0 .015.005.024.005h1.906c0 .526.427.953.953.953h20.912a6.026 6.026 0 0011.798 0h2.556a.953.953 0 00.953-.953v-7.636a.953.953 0 00-.953-.953zM9.055 46.685a4.29 4.29 0 110-8.578 4.29 4.29 0 010 8.578zm8.101-5.719H15.25a.874.874 0 00-.165.033 6.188 6.188 0 00-12.052-.033H1.906v-7.103a2.431 2.431 0 012.429-2.428h12.821v9.531zm0-11.437H5.166l.715-8.578h11.275v8.578zm0-10.485H3.813v-.43a2.431 2.431 0 012.428-2.43h10.915v2.86zm31.877 23.79a4.112 4.112 0 01-4.112 3.881 4.12 4.12 0 01-4.05-3.415.858.858 0 00-.049-.927 4.112 4.112 0 018.21.461z" fill="#232323"/><path d="M57.813 20H41.186c-.655 0-1.187.336-1.187.75s.532.75 1.188.75h16.624c.656 0 1.188-.336 1.188-.75s-.532-.75-1.188-.75zm1.979 10H33.208c-.667 0-1.208.336-1.208.75s.541.75 1.208.75h26.584c.667 0 1.208-.336 1.208-.75s-.541-.75-1.208-.75zm-2.022-5H44.23c-.679 0-1.23.336-1.23.75s.551.75 1.23.75h13.54c.679 0 1.23-.336 1.23-.75s-.551-.75-1.23-.75z" fill="#232323"/></svg>