<svg width="216" height="221" fill="none" xmlns="http://www.w3.org/2000/svg"><path stroke="#232323" stroke-width="1.5" d="M.75 50.75h162.5v116.5H.75z"/><path d="M82 50v118" stroke="#232323" stroke-width="1.5" stroke-dasharray="3 3"/><path d="M.5 40h163M175 50v117" stroke="#232323" stroke-dasharray="3 3"/><path d="M.75 51.5V34m162.5 17.5V34m0 149.5V166m-81 18.5V167M163 50.7h17m-17 117h17" stroke="#232323" stroke-width="1.5"/><path d="M63.349 30h-6.522v-.91l3.446-3.827c.51-.58.86-1.049 1.052-1.409a2.35 2.35 0 00.294-1.127c0-.52-.157-.946-.471-1.279-.315-.332-.734-.499-1.258-.499-.63 0-1.12.18-1.47.54-.346.356-.52.852-.52 1.49h-1.264c0-.915.294-1.656.882-2.221.592-.565 1.383-.848 2.372-.848.925 0 1.656.244 2.194.732.538.483.807 1.128.807 1.934 0 .98-.625 2.147-1.873 3.5l-2.666 2.892h4.997V30zm5.496 0h-1.272v-8.429l-2.55.937v-1.149L68.647 20h.198v10zm9.946-4.245c0 1.481-.253 2.582-.759 3.302-.506.72-1.296 1.08-2.372 1.08-1.062 0-1.848-.351-2.358-1.053-.51-.706-.775-1.76-.793-3.158v-1.689c0-1.463.253-2.55.759-3.26.505-.711 1.298-1.067 2.379-1.067 1.07 0 1.859.344 2.365 1.032.506.684.765 1.741.779 3.172v1.64zm-1.265-1.73c0-1.07-.15-1.85-.45-2.337-.302-.493-.778-.739-1.43-.739-.647 0-1.118.244-1.415.732-.296.487-.448 1.237-.458 2.249v2.023c0 1.076.155 1.87.465 2.386.315.51.789.766 1.422.766.624 0 1.087-.242 1.388-.725.305-.483.465-1.244.478-2.283v-2.072zm7.677-1.421l.034.82c.543-.638 1.274-.957 2.195-.957 1.034 0 1.738.396 2.112 1.19.246-.356.565-.643.957-.862.396-.219.864-.328 1.401-.328 1.623 0 2.448.859 2.475 2.577V30h-1.265v-4.88c0-.53-.12-.924-.362-1.184-.242-.264-.647-.396-1.217-.396-.47 0-.859.141-1.169.424-.31.278-.49.654-.54 1.128V30h-1.271v-4.847c0-1.075-.527-1.613-1.58-1.613-.829 0-1.396.353-1.701 1.06V30h-1.265v-7.396h1.196zm12.278 0l.034.82c.542-.638 1.273-.957 2.194-.957 1.034 0 1.739.396 2.112 1.19a2.81 2.81 0 01.957-.862c.397-.219.864-.328 1.402-.328 1.622 0 2.447.859 2.474 2.577V30h-1.264v-4.88c0-.53-.121-.924-.363-1.184-.241-.264-.647-.396-1.216-.396-.47 0-.86.141-1.169.424-.31.278-.49.654-.54 1.128V30h-1.272v-4.847c0-1.075-.526-1.613-1.579-1.613-.83 0-1.397.353-1.702 1.06V30h-1.265v-7.396h1.197zM101.983 201h-1.271v-8.429l-2.55.937v-1.149l3.623-1.36h.198V201zm9.947-4.245c0 1.481-.253 2.582-.759 3.302-.506.72-1.297 1.08-2.372 1.08-1.062 0-1.848-.351-2.359-1.053-.51-.706-.774-1.759-.793-3.158v-1.689c0-1.463.253-2.549.759-3.26.506-.711 1.299-1.067 2.379-1.067 1.071 0 1.86.344 2.365 1.032.506.684.766 1.741.78 3.172v1.641zm-1.265-1.73c0-1.071-.15-1.85-.451-2.337-.301-.493-.777-.739-1.429-.739-.647 0-1.119.244-1.415.732-.296.487-.449 1.237-.458 2.249v2.023c0 1.076.155 1.871.465 2.386.314.51.788.765 1.422.765.624 0 1.087-.241 1.388-.724.305-.483.464-1.244.478-2.283v-2.072zm3.466.985l.506-4.963h5.099v1.169h-4.026l-.301 2.714a3.216 3.216 0 011.661-.431c.907 0 1.627.301 2.16.902.534.597.8 1.406.8 2.427 0 1.026-.278 1.834-.834 2.427-.551.588-1.324.882-2.317.882-.88 0-1.597-.244-2.153-.732-.556-.487-.873-1.162-.951-2.023h1.197c.077.569.28 1 .608 1.292.328.287.761.43 1.299.43.588 0 1.048-.2 1.381-.601.337-.401.506-.955.506-1.661 0-.666-.183-1.199-.547-1.6-.36-.405-.841-.608-1.443-.608-.551 0-.984.121-1.298.362l-.335.274-1.012-.26zm12.072-2.406l.034.82c.543-.638 1.274-.957 2.195-.957 1.034 0 1.738.396 2.112 1.189.246-.355.565-.642.957-.861.396-.219.864-.328 1.401-.328 1.623 0 2.448.859 2.475 2.577V201h-1.265v-4.881c0-.529-.12-.923-.362-1.182-.242-.265-.647-.397-1.217-.397-.469 0-.859.141-1.169.424-.31.278-.49.654-.54 1.128V201h-1.271v-4.847c0-1.075-.527-1.613-1.579-1.613-.83 0-1.397.353-1.703 1.06v5.4h-1.264v-7.396h1.196zm12.277 0l.035.82c.542-.638 1.273-.957 2.194-.957 1.034 0 1.739.396 2.112 1.189.246-.355.565-.642.957-.861.397-.219.864-.328 1.402-.328 1.622 0 2.447.859 2.474 2.577V201h-1.264v-4.881c0-.529-.121-.923-.363-1.182-.241-.265-.647-.397-1.216-.397-.47 0-.86.141-1.169.424-.31.278-.49.654-.54 1.128V201h-1.272v-4.847c0-1.075-.526-1.613-1.579-1.613-.829 0-1.397.353-1.702 1.06v5.4h-1.265v-7.396h1.196zM196 129.017v1.271h-8.429l.937 2.55h-1.149l-1.36-3.623v-.198H196zm-3.343-9.044v-1.381h1.032v1.381H196v1.271h-2.311v4.532h-.745l-6.897-4.457v-1.346h6.61zm0 4.368v-3.097h-4.881l.274.151 4.607 2.946zm-4.012-12.927c.496 0 .938.132 1.326.397.387.259.69.613.909 1.059.223-.519.549-.93.977-1.23a2.444 2.444 0 011.456-.458c.862 0 1.548.291 2.058.875.511.578.766 1.342.766 2.29 0 .957-.255 1.725-.766 2.303-.515.575-1.201.862-2.058.862a2.547 2.547 0 01-1.456-.438 2.763 2.763 0 01-.984-1.223 2.61 2.61 0 01-.909 1.045 2.339 2.339 0 01-1.319.383c-.839 0-1.504-.269-1.997-.806-.492-.538-.738-1.247-.738-2.126 0-.875.246-1.582.738-2.119.493-.543 1.158-.814 1.997-.814zm4.641 1.032c-.556 0-1.009.178-1.36.533-.351.351-.527.812-.527 1.381 0 .57.174 1.028.52 1.374.346.342.802.513 1.367.513s1.01-.166 1.333-.499c.324-.337.485-.804.485-1.401 0-.593-.161-1.058-.485-1.395-.328-.337-.772-.506-1.333-.506zm-6.337 1.901c0 .496.155.9.465 1.21.305.305.722.458 1.251.458.506 0 .916-.151 1.231-.452.309-.305.464-.71.464-1.216s-.155-.91-.464-1.21c-.315-.306-.725-.458-1.231-.458-.506 0-.918.157-1.237.471-.319.315-.479.714-.479 1.197zm1.655-9.55l.82-.034c-.638-.543-.957-1.274-.957-2.195 0-1.034.396-1.738 1.189-2.112a2.817 2.817 0 01-.861-.957c-.219-.396-.328-.864-.328-1.401 0-1.623.859-2.448 2.577-2.475H196v1.265h-4.881c-.529 0-.923.12-1.182.362-.265.242-.397.647-.397 1.217 0 .47.141.859.424 1.169.278.31.654.49 1.128.54H196v1.271h-4.847c-1.075 0-1.613.527-1.613 1.579 0 .83.353 1.397 1.06 1.703h5.4v1.264h-7.396v-1.196zm0-12.278l.82-.034c-.638-.542-.957-1.273-.957-2.194 0-1.034.396-1.739 1.189-2.112a2.818 2.818 0 01-.861-.957c-.219-.397-.328-.864-.328-1.402 0-1.622.859-2.447 2.577-2.474H196v1.264h-4.881c-.529 0-.923.121-1.182.363-.265.241-.397.647-.397 1.216 0 .47.141.86.424 1.17.278.31.654.49 1.128.54H196v1.27h-4.847c-1.075 0-1.613.527-1.613 1.58 0 .83.353 1.397 1.06 1.702h5.4v1.265h-7.396v-1.197z" fill="#000"/><path d="M81.5 179H164" stroke="#232323" stroke-dasharray="3 3"/></svg>