<svg width="216" height="174" fill="none" xmlns="http://www.w3.org/2000/svg"><path stroke="#232323" stroke-width="1.5" d="M.75 50.75h162.5v72.5H.75z"/><path d="M82 50v74" stroke="#232323" stroke-width="1.5" stroke-dasharray="3 3"/><path d="M.5 40h163M175 50v81" stroke="#232323" stroke-dasharray="3 3"/><path d="M.75 51.5V34m162.5 17.5V34M163 138v-15m-81 16v-15m81-73.3h17M163 124h17" stroke="#232323" stroke-width="1.5"/><path d="M62.166 26.657h1.38v1.032h-1.38V30h-1.271v-2.31h-4.533v-.746l4.457-6.897h1.347v6.61zm-4.368 0h3.096v-4.88l-.15.273-2.946 4.607zm13.132-.902c0 1.481-.253 2.582-.76 3.302-.505.72-1.296 1.08-2.371 1.08-1.062 0-1.848-.351-2.359-1.053-.51-.706-.774-1.76-.793-3.158v-1.689c0-1.463.253-2.55.76-3.26.505-.711 1.298-1.067 2.378-1.067 1.071 0 1.86.344 2.365 1.032.506.684.766 1.741.78 3.172v1.64zm-1.265-1.73c0-1.07-.15-1.85-.451-2.337-.3-.493-.777-.739-1.429-.739-.647 0-1.119.244-1.415.732-.296.487-.449 1.237-.458 2.249v2.023c0 1.076.155 1.87.465 2.386.314.51.788.766 1.422.766.624 0 1.087-.242 1.387-.725.306-.483.465-1.244.479-2.283v-2.072zm9.126 1.73c0 1.481-.253 2.582-.759 3.302-.506.72-1.296 1.08-2.372 1.08-1.062 0-1.848-.351-2.358-1.053-.51-.706-.775-1.76-.793-3.158v-1.689c0-1.463.253-2.55.759-3.26.505-.711 1.298-1.067 2.379-1.067 1.07 0 1.859.344 2.365 1.032.506.684.765 1.741.779 3.172v1.64zm-1.265-1.73c0-1.07-.15-1.85-.45-2.337-.302-.493-.778-.739-1.43-.739-.647 0-1.118.244-1.415.732-.296.487-.448 1.237-.458 2.249v2.023c0 1.076.155 1.87.465 2.386.315.51.789.766 1.422.766.624 0 1.087-.242 1.388-.725.305-.483.465-1.244.478-2.283v-2.072zm7.677-1.421l.034.82c.543-.638 1.274-.957 2.195-.957 1.034 0 1.738.396 2.112 1.19.246-.356.565-.643.957-.862.396-.219.864-.328 1.401-.328 1.623 0 2.448.859 2.475 2.577V30h-1.265v-4.88c0-.53-.12-.924-.362-1.184-.242-.264-.647-.396-1.217-.396-.47 0-.859.141-1.169.424-.31.278-.49.654-.54 1.128V30h-1.271v-4.847c0-1.075-.527-1.613-1.58-1.613-.829 0-1.396.353-1.701 1.06V30h-1.265v-7.396h1.196zm12.278 0l.034.82c.542-.638 1.273-.957 2.194-.957 1.034 0 1.739.396 2.112 1.19a2.81 2.81 0 01.957-.862c.397-.219.864-.328 1.402-.328 1.622 0 2.447.859 2.474 2.577V30h-1.264v-4.88c0-.53-.121-.924-.363-1.184-.241-.264-.647-.396-1.216-.396-.47 0-.86.141-1.169.424-.31.278-.49.654-.54 1.128V30h-1.272v-4.847c0-1.075-.526-1.613-1.579-1.613-.83 0-1.397.353-1.702 1.06V30h-1.265v-7.396h1.197zM104.349 154h-6.522v-.909l3.445-3.828c.511-.579.862-1.048 1.053-1.409a2.35 2.35 0 00.294-1.127c0-.52-.157-.946-.472-1.279-.314-.332-.733-.499-1.257-.499-.629 0-1.12.18-1.47.54-.346.356-.52.852-.52 1.49h-1.264c0-.916.294-1.656.882-2.221.592-.565 1.383-.848 2.372-.848.925 0 1.656.244 2.194.732.538.483.807 1.128.807 1.934 0 .98-.625 2.147-1.873 3.5l-2.666 2.892h4.997V154zm7.581-4.245c0 1.481-.253 2.582-.759 3.302-.506.72-1.297 1.08-2.372 1.08-1.062 0-1.848-.351-2.359-1.053-.51-.706-.774-1.759-.793-3.158v-1.689c0-1.463.253-2.549.759-3.26.506-.711 1.299-1.067 2.379-1.067 1.071 0 1.86.344 2.365 1.032.506.684.766 1.741.78 3.172v1.641zm-1.265-1.73c0-1.071-.15-1.85-.451-2.337-.301-.493-.777-.739-1.429-.739-.647 0-1.119.244-1.415.732-.296.487-.449 1.237-.458 2.249v2.023c0 1.076.155 1.871.465 2.386.314.51.788.765 1.422.765.624 0 1.087-.241 1.388-.724.305-.483.464-1.244.478-2.283v-2.072zm9.126 1.73c0 1.481-.253 2.582-.759 3.302-.506.72-1.296 1.08-2.372 1.08-1.062 0-1.848-.351-2.358-1.053-.511-.706-.775-1.759-.793-3.158v-1.689c0-1.463.253-2.549.759-3.26.505-.711 1.298-1.067 2.378-1.067 1.071 0 1.86.344 2.366 1.032.506.684.765 1.741.779 3.172v1.641zm-1.265-1.73c0-1.071-.15-1.85-.451-2.337-.301-.493-.777-.739-1.429-.739-.647 0-1.118.244-1.415.732-.296.487-.448 1.237-.458 2.249v2.023c0 1.076.155 1.871.465 2.386.315.51.789.765 1.422.765.625 0 1.087-.241 1.388-.724.305-.483.465-1.244.478-2.283v-2.072zm7.677-1.421l.034.82c.543-.638 1.274-.957 2.195-.957 1.034 0 1.738.396 2.112 1.189.246-.355.565-.642.957-.861.396-.219.864-.328 1.401-.328 1.623 0 2.448.859 2.475 2.577V154h-1.265v-4.881c0-.529-.12-.923-.362-1.182-.242-.265-.647-.397-1.217-.397-.469 0-.859.141-1.169.424-.31.278-.49.654-.54 1.128V154h-1.271v-4.847c0-1.075-.527-1.613-1.579-1.613-.83 0-1.397.353-1.703 1.06v5.4h-1.264v-7.396h1.196zm12.277 0l.035.82c.542-.638 1.273-.957 2.194-.957 1.034 0 1.739.396 2.112 1.189.246-.355.565-.642.957-.861.397-.219.864-.328 1.402-.328 1.622 0 2.447.859 2.474 2.577V154h-1.264v-4.881c0-.529-.121-.923-.363-1.182-.241-.265-.647-.397-1.216-.397-.47 0-.86.141-1.169.424-.31.278-.49.654-.54 1.128V154h-1.272v-4.847c0-1.075-.526-1.613-1.579-1.613-.829 0-1.397.353-1.702 1.06v5.4h-1.265v-7.396h1.196zM196 112.017v1.271h-8.429l.937 2.55h-1.149l-1.36-3.623v-.198H196zm-4.245-9.947c1.481 0 2.582.253 3.302.759.72.506 1.08 1.297 1.08 2.372 0 1.062-.351 1.848-1.053 2.359-.706.51-1.759.774-3.158.793h-1.689c-1.463 0-2.55-.253-3.26-.759-.711-.506-1.067-1.299-1.067-2.379 0-1.071.344-1.86 1.032-2.365.684-.506 1.741-.766 3.172-.78h1.641zm-1.73 1.265c-1.071 0-1.85.15-2.338.451-.492.301-.738.777-.738 1.429 0 .647.244 1.119.732 1.415.487.296 1.237.449 2.249.458h2.023c1.076 0 1.871-.155 2.386-.465.51-.314.765-.788.765-1.422 0-.624-.241-1.087-.724-1.388-.483-.305-1.244-.464-2.283-.478h-2.072zm1.73-9.126c1.481 0 2.582.253 3.302.759.72.506 1.08 1.296 1.08 2.372 0 1.062-.351 1.848-1.053 2.358-.706.511-1.759.775-3.158.793h-1.689c-1.463 0-2.55-.253-3.26-.759-.711-.505-1.067-1.298-1.067-2.379 0-1.07.344-1.859 1.032-2.365.684-.506 1.741-.765 3.172-.779h1.641zm-1.73 1.265c-1.071 0-1.85.15-2.338.45-.492.302-.738.778-.738 1.43 0 .647.244 1.118.732 1.415.487.296 1.237.448 2.249.458h2.023c1.076 0 1.871-.155 2.386-.465.51-.315.765-.789.765-1.422 0-.624-.241-1.087-.724-1.388-.483-.305-1.244-.465-2.283-.478h-2.072zm-1.421-7.677l.82-.034c-.638-.543-.957-1.274-.957-2.195 0-1.034.396-1.738 1.189-2.112a2.818 2.818 0 01-.861-.957c-.219-.396-.328-.864-.328-1.401 0-1.623.859-2.448 2.577-2.475H196v1.265h-4.881c-.529 0-.923.12-1.182.362-.265.242-.397.647-.397 1.217 0 .47.141.859.424 1.169.278.31.654.49 1.128.54H196v1.271h-4.847c-1.075 0-1.613.527-1.613 1.58 0 .829.353 1.396 1.06 1.701h5.4v1.265h-7.396v-1.196zm0-12.278l.82-.034c-.638-.542-.957-1.273-.957-2.194 0-1.034.396-1.739 1.189-2.112a2.818 2.818 0 01-.861-.957c-.219-.397-.328-.864-.328-1.402 0-1.622.859-2.447 2.577-2.474H196v1.264h-4.881c-.529 0-.923.121-1.182.363-.265.241-.397.647-.397 1.216 0 .47.141.86.424 1.17.278.31.654.49 1.128.54H196v1.27h-4.847c-1.075 0-1.613.527-1.613 1.58 0 .83.353 1.397 1.06 1.702h5.4v1.265h-7.396v-1.197z" fill="#000"/><path d="M82 134h82" stroke="#232323" stroke-dasharray="3 3"/></svg>