<svg width="216" height="221" fill="none" xmlns="http://www.w3.org/2000/svg"><path stroke="#232323" stroke-width="1.5" d="M.75 50.75h162.5v116.5H.75z"/><path d="M82 50v118" stroke="#232323" stroke-width="1.5" stroke-dasharray="3 3"/><path d="M.5 40h163M175 50v117" stroke="#232323" stroke-dasharray="3 3"/><path d="M.75 51.5V34m162.5 17.5V34m0 149.5V166m-81 18.5V167M163 50.7h17m-17 117h17" stroke="#232323" stroke-width="1.5"/><path d="M63.349 30h-6.522v-.91l3.446-3.827c.51-.58.86-1.049 1.052-1.409a2.35 2.35 0 00.294-1.127c0-.52-.157-.946-.471-1.279-.315-.332-.734-.499-1.258-.499-.63 0-1.12.18-1.47.54-.346.356-.52.852-.52 1.49h-1.264c0-.915.294-1.656.882-2.221.592-.565 1.383-.848 2.372-.848.925 0 1.656.244 2.194.732.538.483.807 1.128.807 1.934 0 .98-.625 2.147-1.873 3.5l-2.666 2.892h4.997V30zm6.186-4.375a3.082 3.082 0 01-.95.759 2.549 2.549 0 01-1.203.287c-.574 0-1.076-.141-1.504-.424-.424-.282-.752-.679-.984-1.19a4.089 4.089 0 01-.35-1.701c0-.666.126-1.265.377-1.798.255-.534.615-.942 1.08-1.224.465-.283 1.007-.424 1.627-.424.984 0 1.759.37 2.324 1.108.57.733.855 1.736.855 3.007v.37c0 1.936-.383 3.351-1.149 4.245-.765.888-1.92 1.344-3.466 1.367h-.246V28.94h.267c1.044-.018 1.846-.289 2.406-.813.56-.529.866-1.363.916-2.502zm-1.948 0c.424 0 .813-.13 1.169-.39.36-.26.622-.58.786-.963v-.506c0-.83-.18-1.504-.54-2.024-.36-.52-.816-.78-1.367-.78-.556 0-1.003.215-1.34.643-.337.424-.506.985-.506 1.682 0 .68.162 1.24.485 1.682a1.56 1.56 0 001.313.656zm11.389-4.867L74.853 30h-1.326l4.109-8.914h-5.387v-1.04h6.727v.712zm6.227 1.846l.034.82c.543-.638 1.274-.957 2.195-.957 1.034 0 1.738.396 2.112 1.19.246-.356.565-.643.957-.862.396-.219.864-.328 1.401-.328 1.623 0 2.448.859 2.475 2.577V30h-1.265v-4.88c0-.53-.12-.924-.362-1.184-.242-.264-.647-.396-1.217-.396-.47 0-.859.141-1.169.424-.31.278-.49.654-.54 1.128V30h-1.271v-4.847c0-1.075-.527-1.613-1.58-1.613-.829 0-1.396.353-1.701 1.06V30h-1.265v-7.396h1.196zm12.278 0l.034.82c.542-.638 1.273-.957 2.194-.957 1.034 0 1.739.396 2.112 1.19a2.81 2.81 0 01.957-.862c.397-.219.864-.328 1.402-.328 1.622 0 2.447.859 2.474 2.577V30h-1.264v-4.88c0-.53-.121-.924-.363-1.184-.241-.264-.647-.396-1.216-.396-.47 0-.86.141-1.169.424-.31.278-.49.654-.54 1.128V30h-1.272v-4.847c0-1.075-.526-1.613-1.579-1.613-.83 0-1.397.353-1.702 1.06V30h-1.265v-7.396h1.197zM101.983 201h-1.271v-8.429l-2.55.937v-1.149l3.623-1.36h.198V201zm9.044-3.343h1.381v1.032h-1.381V201h-1.271v-2.311h-4.532v-.745l4.457-6.897h1.346v6.61zm-4.368 0h3.097v-4.881l-.151.274-2.946 4.607zm12.927-4.012c0 .496-.132.938-.397 1.326a2.65 2.65 0 01-1.059.909c.519.223.93.549 1.23.977.306.429.458.914.458 1.456 0 .862-.291 1.548-.875 2.058-.578.511-1.342.766-2.29.766-.957 0-1.725-.255-2.303-.766-.575-.515-.862-1.201-.862-2.058 0-.537.146-1.023.438-1.456a2.763 2.763 0 011.223-.984 2.61 2.61 0 01-1.045-.909 2.339 2.339 0 01-.383-1.319c0-.839.269-1.504.806-1.997.538-.492 1.247-.738 2.126-.738.875 0 1.582.246 2.119.738.543.493.814 1.158.814 1.997zm-1.032 4.641c0-.556-.178-1.009-.533-1.36-.351-.351-.812-.527-1.381-.527-.57 0-1.028.174-1.374.52-.342.346-.513.802-.513 1.367s.166 1.01.499 1.333c.337.324.804.485 1.401.485.593 0 1.058-.161 1.395-.485.337-.328.506-.772.506-1.333zm-1.901-6.337c-.496 0-.9.155-1.21.465-.305.305-.458.722-.458 1.251 0 .506.151.916.452 1.231.305.309.71.464 1.216.464s.909-.155 1.21-.464c.306-.315.458-.725.458-1.231 0-.506-.157-.918-.471-1.237-.315-.319-.714-.479-1.197-.479zm9.55 1.655l.034.82c.543-.638 1.274-.957 2.195-.957 1.034 0 1.738.396 2.112 1.189.246-.355.565-.642.957-.861.396-.219.864-.328 1.401-.328 1.623 0 2.448.859 2.475 2.577V201h-1.265v-4.881c0-.529-.12-.923-.362-1.182-.242-.265-.647-.397-1.217-.397-.469 0-.859.141-1.169.424-.31.278-.49.654-.54 1.128V201h-1.271v-4.847c0-1.075-.527-1.613-1.579-1.613-.83 0-1.397.353-1.703 1.06v5.4h-1.264v-7.396h1.196zm12.277 0l.035.82c.542-.638 1.273-.957 2.194-.957 1.034 0 1.739.396 2.112 1.189.246-.355.565-.642.957-.861.397-.219.864-.328 1.402-.328 1.622 0 2.447.859 2.474 2.577V201h-1.264v-4.881c0-.529-.121-.923-.363-1.182-.241-.265-.647-.397-1.216-.397-.47 0-.86.141-1.169.424-.31.278-.49.654-.54 1.128V201h-1.272v-4.847c0-1.075-.526-1.613-1.579-1.613-.829 0-1.397.353-1.702 1.06v5.4h-1.265v-7.396h1.196zM196 126.651v6.522h-.909l-3.828-3.445c-.579-.511-1.048-.862-1.409-1.053a2.35 2.35 0 00-1.127-.294c-.52 0-.946.157-1.279.472-.332.314-.499.733-.499 1.257 0 .629.18 1.119.54 1.47.356.346.852.52 1.49.52v1.264c-.916 0-1.656-.294-2.221-.882-.565-.592-.848-1.383-.848-2.372 0-.925.244-1.656.732-2.194.483-.538 1.128-.807 1.934-.807.98 0 2.147.625 3.5 1.873l2.892 2.666v-4.997H196zm0-5.496v1.272h-8.429l.937 2.55h-1.149l-1.36-3.623v-.199H196zm-4.245-9.946c1.481 0 2.582.253 3.302.759.72.506 1.08 1.296 1.08 2.372 0 1.062-.351 1.848-1.053 2.358-.706.511-1.759.775-3.158.793h-1.689c-1.463 0-2.55-.253-3.26-.759-.711-.505-1.067-1.298-1.067-2.378 0-1.071.344-1.86 1.032-2.366.684-.506 1.741-.765 3.172-.779h1.641zm-1.73 1.265c-1.071 0-1.85.15-2.338.451-.492.301-.738.777-.738 1.429 0 .647.244 1.118.732 1.415.487.296 1.237.448 2.249.458h2.023c1.076 0 1.871-.155 2.386-.465.51-.315.765-.789.765-1.422 0-.625-.241-1.087-.724-1.388-.483-.305-1.244-.465-2.283-.478h-2.072zm-1.421-7.677l.82-.034c-.638-.543-.957-1.274-.957-2.195 0-1.034.396-1.738 1.189-2.112a2.817 2.817 0 01-.861-.957c-.219-.396-.328-.864-.328-1.401 0-1.623.859-2.448 2.577-2.475H196v1.265h-4.881c-.529 0-.923.12-1.182.362-.265.242-.397.647-.397 1.217 0 .47.141.859.424 1.169.278.31.654.49 1.128.54H196v1.271h-4.847c-1.075 0-1.613.527-1.613 1.579 0 .83.353 1.397 1.06 1.703h5.4v1.264h-7.396v-1.196zm0-12.278l.82-.034c-.638-.542-.957-1.273-.957-2.194 0-1.034.396-1.739 1.189-2.112a2.818 2.818 0 01-.861-.957c-.219-.397-.328-.864-.328-1.402 0-1.622.859-2.447 2.577-2.474H196v1.264h-4.881c-.529 0-.923.121-1.182.363-.265.241-.397.647-.397 1.216 0 .47.141.86.424 1.17.278.31.654.49 1.128.54H196v1.27h-4.847c-1.075 0-1.613.527-1.613 1.58 0 .83.353 1.397 1.06 1.702h5.4v1.265h-7.396v-1.197z" fill="#000"/><path d="M81.5 179H164" stroke="#232323" stroke-dasharray="3 3"/></svg>