<svg width="82" height="67" fill="none" xmlns="http://www.w3.org/2000/svg"><path d="M40.844 38.127c-7.423 0-12.372-3.934-13.919-5.902-2.32 0-5.799 1.18-9.859 7.672-3.247 5.194-3.286 13.18-2.9 16.525.194 1.18 1.045 4.013 2.9 5.902 1.856 1.888 5.027 2.754 6.38 2.95 11.598.197 35.376.473 37.696 0 2.9-.59 6.379-3.54 7.539-8.852.928-4.25-.387-9.64-1.16-11.803-.387-2.164-1.972-7.082-5.22-9.443-3.247-2.36-6.379-2.95-7.539-2.95-1.546 1.967-6.495 5.901-13.918 5.901z" stroke="#fff" stroke-width="1.5"/><circle cx="40.725" cy="15.57" r="14.356" stroke="#fff" stroke-width="1.5"/><path d="M16 24.5C11.834 25.833 4.96 31.303 2 39c-2.5 6.5 0 14 5 17m59.02-31.5c4.166 1.333 11.039 6.803 13.999 14.5 2.5 6.5 0 14-5 17" stroke="#fff" stroke-width="1.5"/></svg>