<svg width="52" height="52" fill="none" xmlns="http://www.w3.org/2000/svg"><g clip-path="url(#clip0)" fill="#DFDFDF"><path d="M15.068 13.37a1.22 1.22 0 00.861-.37l8.852-8.84v32.809a1.219 1.219 0 002.438 0V4.16L36.07 13a1.219 1.219 0 001.71-1.71L26.861.358a1.221 1.221 0 00-.187-.155l-.093-.049a1.208 1.208 0 00-.118-.06 1.216 1.216 0 00-.126-.041L26.24.024a1.219 1.219 0 00-.48 0l-.101.033a1.19 1.19 0 00-.126.04c-.04.019-.08.039-.118.061l-.09.045a1.15 1.15 0 00-.186.155L14.219 11.29a1.219 1.219 0 00.861 2.08h-.012z"/><path d="M50.781 35.75a1.218 1.218 0 00-1.218 1.219v8.937a3.656 3.656 0 01-3.657 3.657H6.094a3.656 3.656 0 01-3.657-3.657V36.97a1.219 1.219 0 10-2.437 0v8.937A6.094 6.094 0 006.094 52h39.812A6.094 6.094 0 0052 45.906V36.97a1.218 1.218 0 00-1.219-1.219z"/></g><defs><clipPath id="clip0"><path fill="#fff" d="M0 0h52v52H0z"/></clipPath></defs></svg>