<svg width="57" height="57" fill="none" xmlns="http://www.w3.org/2000/svg"><path d="M7.729 31.88a.966.966 0 00-.966.966v3.864a.966.966 0 001.932 0v-3.864a.966.966 0 00-.966-.966zm3.864 1.932a.966.966 0 00-.966.966v3.864a.966.966 0 001.932 0v-3.864a.966.966 0 00-.966-.966z" fill="#232323"/><path d="M53.644 42.196a11.588 11.588 0 00-6.307-7.322v-21.35a.966.966 0 00-.475-.831L25.61.134a.966.966 0 00-.983 0L3.373 12.693c-.02.012-.035.029-.054.043a.95.95 0 00-.27.28c0 .007-.012.01-.016.017v.007a.965.965 0 00-.11.316c0 .029-.008.056-.01.085-.004.029-.014.055-.014.084v25.117c0 .341.18.658.474.832l21.253 12.558a.815.815 0 00.078.033.795.795 0 00.081.035.863.863 0 00.665 0 .811.811 0 00.082-.035c.025-.011.052-.018.077-.033l5.769-3.409c1.775 6.149 8.198 9.694 14.346 7.92 6.15-1.776 9.695-8.199 7.92-14.347zM25.118 2.088l5.023 2.968-7.448 4.402a.967.967 0 00.983 1.664l8.365-4.94 5.024 2.97L17.71 20.585l-5.023-2.969 8.092-4.782a.967.967 0 00-.983-1.664l-9.009 5.324-5.024-2.97L25.118 2.089zm-8.373 20.17v6.451l-4.99-2.95v-6.45l4.99 2.95zm14.55 20.16a11.553 11.553 0 00-.381 2.986c0 .404.021.808.064 1.21l-4.894 2.894V46.37a.966.966 0 10-1.932 0v3.138L4.83 38.091V15.218l4.991 2.95v8.142c0 .342.18.66.475.833l6.922 4.091a.966.966 0 001.458-.832V23.4l5.475 3.235v15.871a.966.966 0 001.932 0V26.635l17.508-10.346a.966.966 0 00-.983-1.664l-17.49 10.337-5.507-3.255L38.965 10.27l6.44 3.805v20.123c-6.166-1.626-12.483 2.054-14.11 8.22zm11.211 12.647a9.66 9.66 0 01-9.66-9.66 9.66 9.66 0 019.66-9.661 9.66 9.66 0 019.66 9.66 9.671 9.671 0 01-9.66 9.66z" fill="#232323"/><path d="M46.064 42.79a.966.966 0 00-1.343 0l-3.664 3.663-.766-.766a.966.966 0 00-1.366 1.366l1.45 1.45a.966.966 0 001.365 0l4.347-4.348a.966.966 0 00-.023-1.366z" fill="#232323"/></svg>