<svg width="57" height="57" viewBox="0 0 57 57" fill="none" xmlns="http://www.w3.org/2000/svg">
<path d="M7.72898 31.8797C7.19549 31.8797 6.76294 32.3122 6.76294 32.8457V36.7099C6.76294 37.2434 7.19549 37.676 7.72898 37.676C8.26248 37.676 8.69503 37.2434 8.69503 36.7099V32.8457C8.69503 32.3122 8.26248 31.8797 7.72898 31.8797Z" fill="#232323"/>
<path d="M11.593 33.8118C11.0595 33.8118 10.627 34.2443 10.627 34.7778V38.642C10.627 39.1755 11.0595 39.608 11.593 39.608C12.1265 39.608 12.559 39.1755 12.559 38.642V34.7778C12.559 34.2443 12.1265 33.8118 11.593 33.8118Z" fill="#232323"/>
<path d="M53.6438 42.1955C52.7078 38.9531 50.4048 36.2798 47.3366 34.8743V13.5248C47.3368 13.1832 47.1563 12.8669 46.8623 12.693L25.6094 0.134491C25.306 -0.0448304 24.9292 -0.0448304 24.6259 0.134491L3.37301 12.693C3.35272 12.7046 3.33823 12.722 3.31891 12.7355C3.29959 12.7491 3.28123 12.7645 3.26191 12.78C3.17799 12.846 3.1059 12.9257 3.04842 13.0157C3.04842 13.0225 3.03683 13.0263 3.03296 13.0331V13.0399C2.9785 13.138 2.94155 13.2449 2.9238 13.3557C2.9238 13.3847 2.9151 13.4118 2.91221 13.4408C2.90931 13.4697 2.89868 13.4958 2.89868 13.5248V38.6419C2.89856 38.9835 3.07897 39.2998 3.37301 39.4737L24.6259 52.0322C24.6514 52.0445 24.6775 52.0555 24.7042 52.0651C24.7305 52.0782 24.7577 52.0898 24.7853 52.0999C24.998 52.1887 25.2373 52.1887 25.45 52.0999C25.478 52.0898 25.5054 52.0782 25.5321 52.0651C25.5572 52.0535 25.5843 52.0467 25.6094 52.0322L31.3776 48.6231C33.1526 54.7717 39.5758 58.3173 45.7245 56.5423C51.8732 54.7675 55.4188 48.3441 53.6438 42.1955ZM25.1177 2.08783L30.1411 5.05648L22.6929 9.45777C22.2333 9.72935 22.0808 10.3221 22.3524 10.7817C22.6239 11.2413 23.2167 11.3938 23.6763 11.1223L32.0413 6.18288L37.0647 9.15153L17.711 20.5846L12.6876 17.616L20.7801 12.8341C21.2397 12.5625 21.3922 11.9697 21.1207 11.5101C20.8491 11.0505 20.2563 10.898 19.7967 11.1696L10.7883 16.4935L5.76396 13.5248L25.1177 2.08783ZM16.745 22.2588V28.7091L11.7544 25.7597V19.3095L16.745 22.2588ZM31.2956 42.4179C31.0387 43.3924 30.9103 44.3964 30.9139 45.4042C30.9142 45.8085 30.9354 46.2125 30.9777 46.6147L26.0837 49.508V46.3703C26.0837 45.8368 25.6512 45.4042 25.1177 45.4042C24.5842 45.4042 24.1516 45.8368 24.1516 46.3703V49.508L4.83077 38.0913V15.2183L9.82231 18.1676V26.3104C9.82195 26.6524 10.0022 26.9691 10.2966 27.1431L17.2193 31.2343C17.3683 31.322 17.5381 31.3683 17.711 31.3686C18.2445 31.3686 18.6771 30.936 18.6771 30.4025V23.3997L24.1516 26.635V42.5061C24.1516 43.0396 24.5842 43.4721 25.1177 43.4721C25.6512 43.4721 26.0837 43.0396 26.0837 42.5061V26.635L43.5923 16.2887C44.0516 16.0171 44.2039 15.4245 43.9323 14.9652C43.6607 14.5058 43.0682 14.3535 42.6088 14.6251L25.1177 24.9618L19.6112 21.7072L38.9649 10.2702L45.4045 14.0754V34.1981C39.2387 32.5719 32.9218 36.2519 31.2956 42.4179ZM42.5064 55.0646C37.1711 55.0646 32.846 50.7395 32.846 45.4042C32.846 40.0689 37.1711 35.7438 42.5064 35.7438C47.8418 35.7438 52.1668 40.0689 52.1668 45.4042C52.161 50.7371 47.8393 55.0587 42.5064 55.0646Z" fill="#232323"/>
<path d="M46.0636 42.7892C45.6893 42.4275 45.0956 42.4275 44.7213 42.7892L41.0571 46.4534L40.291 45.6873C39.9073 45.3166 39.2958 45.3272 38.9251 45.711C38.5634 46.0853 38.5634 46.679 38.9251 47.0533L40.3741 48.5024C40.7514 48.8795 41.3629 48.8795 41.7401 48.5024L46.0873 44.1552C46.458 43.7714 46.4474 43.1598 46.0636 42.7892Z" fill="#232323"/>
</svg>
