<svg width="50" height="50" fill="none" xmlns="http://www.w3.org/2000/svg"><path d="M24.967 49.954c6.665 0 12.93-2.598 17.65-7.318A24.903 24.903 0 0049.89 26.25a1.123 1.123 0 00-1.054-1.173 1.123 1.123 0 00-1.173 1.054 22.677 22.677 0 01-6.635 14.918c-4.29 4.29-10.005 6.665-16.076 6.665-6.07 0-11.786-2.36-16.075-6.665-8.862-8.862-8.862-23.29 0-32.152C16.432 1.341 28.188.08 37.124 5.764l-2.508 3.073 7.199-.727-.727-7.2-2.539 3.118C28.708-2.385 15.66-1.034 7.303 7.323c-9.737 9.737-9.737 25.56 0 35.298 4.735 4.735 11 7.333 17.664 7.333z" fill="#fff"/><path d="M36.738 19.851c0-.015 0-.03-.015-.03 0-.03-.014-.044-.014-.074 0-.015-.015-.044-.015-.06 0-.014-.015-.029-.015-.044a.8.8 0 00-.104-.193l-4.72-6.932a1.095 1.095 0 00-.92-.49H18.97c-.37 0-.712.178-.92.49l-4.72 6.917c-.045.06-.075.134-.104.193 0 .015-.015.03-.015.045-.015.015-.015.044-.015.06 0 .029-.015.044-.015.073 0 .015 0 .03-.015.03-.014.074-.03.149-.03.223v16.758c0 .609.505 1.114 1.114 1.114h21.39c.608 0 1.113-.505 1.113-1.114V20.074c0-.09 0-.164-.015-.223zm-17.174-5.596h10.777l3.191 4.69H16.358l3.206-4.69zm14.963 21.464H15.378V21.187h19.163v14.532h-.014z" fill="#fff"/></svg>