<svg width="52" height="52" fill="none" xmlns="http://www.w3.org/2000/svg"><path d="M39 39.867H13V41.6h26v-1.733zm0 5.2H13V46.8h26v-1.733zM40.733 26a1.733 1.733 0 100-3.467 1.733 1.733 0 000 3.467z" fill="#fff"/><path d="M45.933 15.6h-3.466V3.467A3.477 3.477 0 0039 0H13a3.477 3.477 0 00-3.467 3.467V15.6H6.067c-2.947 0-5.2 2.253-5.2 5.2v15.6c0 2.947 2.253 5.2 5.2 5.2h3.466v6.933A3.477 3.477 0 0013 52h26a3.477 3.477 0 003.467-3.467V41.6h3.466c2.947 0 5.2-2.253 5.2-5.2V20.8c0-2.947-2.253-5.2-5.2-5.2zM11.267 3.467c0-.867.693-1.734 1.733-1.734h26c.867 0 1.733.694 1.733 1.734V15.6H11.267V3.467zm29.466 45.066c0 .867-.693 1.734-1.733 1.734H13c-.867 0-1.733-.694-1.733-1.734V36.4h29.466v12.133zM49.4 36.4a3.477 3.477 0 01-3.467 3.467h-3.466v-5.2H9.533v5.2H6.067A3.477 3.477 0 012.6 36.4V20.8a3.477 3.477 0 013.467-3.467h39.866A3.477 3.477 0 0149.4 20.8v15.6z" fill="#fff"/></svg>