<svg width="49" height="49" fill="none" xmlns="http://www.w3.org/2000/svg"><path d="M47.947 23.782a.998.998 0 011.008 1.009.998.998 0 01-1.008 1.008h-1.008v-2.017h1.008zm-22.181 0h21.173V25.8H25.766v-2.017z" fill="#fff"/><path d="M43.914 48.988H24.758a.998.998 0 001.008-1.008v-1.008h18.148a3.02 3.02 0 003.025-3.025V25.8h1.008a.998.998 0 001.008-1.008v19.156a5.043 5.043 0 01-5.04 5.041zm5.041-43.354v19.157a.998.998 0 00-1.008-1.009H46.94V5.634a3.02 3.02 0 00-3.025-3.025H25.766V1.601A.998.998 0 0024.758.593h19.156a5.043 5.043 0 015.041 5.041z" fill="#fff"/><path d="M40.89 12.692a.998.998 0 011.008 1.008.998.998 0 01-1.009 1.008h-8.066a.998.998 0 01-1.008-1.008.998.998 0 011.008-1.008h8.066zm0 20.165a.998.998 0 011.008 1.008.999.999 0 01-1.009 1.008h-8.066a.998.998 0 01-1.008-1.008.998.998 0 011.008-1.008h8.066zm0 6.049a.998.998 0 011.008 1.008.998.998 0 01-1.009 1.008h-8.066a.998.998 0 01-1.008-1.008.998.998 0 011.008-1.008h8.066zm-15.124 8.066v1.008a.998.998 0 01-1.008 1.008.998.998 0 01-1.009-1.008v-1.008h2.017zM23.75 25.799h2.016v21.173h-2.017V25.799z" fill="#fff"/><path d="M23.75 23.782h2.016V25.8h-2.017v-2.017zm0-21.172h2.016v21.172h-2.017V2.61zm2.016-1.009v1.008h-2.017V1.601A.998.998 0 0124.758.593.998.998 0 0125.765 1.6z" fill="#fff"/><path d="M2.576 23.782H23.75V25.8H2.576v-2.017zm14.116-11.09A.998.998 0 0117.7 13.7a.998.998 0 01-1.008 1.008h-3.025v-2.016h3.025zm-.302 26.516a.975.975 0 010 1.412.946.946 0 01-.707.302.946.946 0 01-.705-.302l-2.32-2.32 1.412-1.41 2.32 2.318zm-1.412-6.048a.975.975 0 011.411 0 .975.975 0 010 1.41l-2.319 2.32-1.411-1.412 2.319-2.319zm-3.737 3.728l1.412-1.412 1.411 1.412-1.411 1.411-1.412-1.411zm2.426-22.18v3.025a.998.998 0 01-1.008 1.008.998.998 0 01-1.009-1.008v-3.025h2.017zm-2.017-2.016h2.017v2.016H11.65v-2.016z" fill="#fff"/><path d="M13.667 9.667v3.025H11.65V9.667a.998.998 0 011.01-1.007.998.998 0 011.008 1.008zm-1.008 25.811l-1.412 1.412-2.319-2.32a.975.975 0 010-1.41.975.975 0 011.412 0l2.319 2.318zM11.65 12.692v2.016H8.626A.998.998 0 017.617 13.7a.998.998 0 011.009-1.008h3.024z" fill="#fff"/><path d="M10.34 40.62a.946.946 0 01-.706.302.946.946 0 01-.706-.302.975.975 0 010-1.412l2.32-2.319 1.41 1.412-2.318 2.319zM2.576 23.782V25.8H1.568A.999.999 0 01.56 24.791a.998.998 0 011.008-1.009h1.008z" fill="#fff"/><path d="M.56 5.634A5.043 5.043 0 015.6.593h19.157A.998.998 0 0023.749 1.6v1.008H5.601a3.02 3.02 0 00-3.025 3.025v18.148H1.568a.998.998 0 00-1.008 1.01V5.634z" fill="#fff"/><path d="M2.576 43.947a3.02 3.02 0 003.025 3.025h18.148v1.008a.999.999 0 001.009 1.008H5.6a5.043 5.043 0 01-5.041-5.04V24.79a.999.999 0 001.008 1.008h1.008v18.148z" fill="#fff"/></svg>