<svg width="53" height="53" fill="none" xmlns="http://www.w3.org/2000/svg"><path d="M46.295 7.024h-4.47v-4.47A2.562 2.562 0 0039.272 0H6.705A2.562 2.562 0 004.15 2.554v40.868a2.562 2.562 0 002.554 2.554h4.47v4.47A2.561 2.561 0 0013.729 53h21.71c1.404 0 3.392-.788 4.414-1.75l7.135-6.717c1.024-.962 1.86-2.9 1.86-4.304l.001-30.65a2.562 2.562 0 00-2.554-2.555zm-35.12 2.554V44.06h-4.47a.647.647 0 01-.639-.638V2.554c0-.346.293-.638.639-.638h32.567c.345 0 .638.292.638.638v4.47H13.73a2.561 2.561 0 00-2.554 2.554zm34.5 33.56l-7.135 6.717a3.395 3.395 0 01-.547.4v-5.876c0-.438.177-.833.469-1.127a1.594 1.594 0 011.128-.469h6.388c-.099.135-.2.259-.303.356zm1.257-2.91c0 .19-.034.41-.087.64H39.59a3.52 3.52 0 00-3.513 3.511v6.628a3.337 3.337 0 01-.638.077h-21.71a.647.647 0 01-.639-.638V9.578c0-.346.292-.638.639-.638h32.566c.346 0 .639.292.639.638l-.002 30.65z" fill="#fff"/><path d="M39.272 15.964H20.754a.957.957 0 100 1.915h18.518a.958.958 0 100-1.915zm0 12.771H20.754a.957.957 0 100 1.916h18.518a.958.958 0 100-1.916zM30.97 35.12H20.755a.957.957 0 100 1.916H30.97a.957.957 0 000-1.915zm8.302-12.77H20.754a.957.957 0 100 1.915h18.518a.958.958 0 100-1.916z" fill="#fff"/></svg>