<svg width="72" height="57" fill="none" xmlns="http://www.w3.org/2000/svg"><path d="M70.383 14.867L56.133.616a2.108 2.108 0 00-2.979 0l-6.28 6.28a2.108 2.108 0 000 2.979l.697.697-1.941 1.942-6.226-1.583a4.526 4.526 0 00-4.297 1.181L29.89 17.33a2.419 2.419 0 00-.48.034l-4.003.698-1.978-1.978.698-.697a2.108 2.108 0 000-2.978l-6.281-6.281a2.108 2.108 0 00-2.978 0l-4.015 4.015a1.04 1.04 0 101.47 1.47l4.015-4.015c.01-.01.027-.01.037 0l6.28 6.28c.01.011.01.027 0 .037L8.405 28.166a.026.026 0 01-.037 0l-6.28-6.28c-.009-.009-.009-.028 0-.037l7.03-7.03a1.04 1.04 0 10-1.47-1.471l-7.031 7.03A2.092 2.092 0 000 21.868c0 .562.22 1.091.617 1.489l6.28 6.28c.411.41.95.616 1.49.616a2.1 2.1 0 001.489-.616l.697-.697 1.978 1.978-.698 4.004a2.43 2.43 0 00.675 2.133l4.693 4.694a1.036 1.036 0 001.471 0 1.04 1.04 0 000-1.471l-4.694-4.694a.347.347 0 01-.096-.305l.791-4.536a1.04 1.04 0 00-.29-.914l-2.36-2.36 9.915-9.914 2.36 2.36a1.04 1.04 0 00.914.289l2.16-.377-2.62 2.62a4.138 4.138 0 000 5.845c.782.78 1.82 1.21 2.924 1.21 1.104 0 2.142-.43 2.922-1.21l4.124-4.123 15.234 15.244a2.064 2.064 0 010 2.915 2.064 2.064 0 01-2.915 0l-5.495-5.494a1.04 1.04 0 10-1.47 1.47L45.59 43.8l2.165 2.165c.39.39.604.907.604 1.458 0 .55-.214 1.068-.604 1.458-.39.39-.907.603-1.457.603a2.048 2.048 0 01-1.458-.603l-2.166-2.166-5.494-5.494a1.04 1.04 0 10-1.47 1.47l5.494 5.495c.39.39.603.907.603 1.458 0 .55-.214 1.068-.603 1.458a2.064 2.064 0 01-2.916 0l-2.16-2.161a.176.176 0 01-.005-.005l-3.33-3.33a1.04 1.04 0 10-1.47 1.472l3.33 3.329a2.064 2.064 0 010 2.915c-.39.39-.908.604-1.459.604-.55 0-1.068-.214-1.457-.604l-9.84-9.839a1.04 1.04 0 00-1.47 1.471l9.839 9.839a4.115 4.115 0 002.929 1.213 4.11 4.11 0 002.928-1.213c.54-.54.899-1.192 1.078-1.882a4.148 4.148 0 006.554-2.219 4.11 4.11 0 002.543.872c1.106 0 2.146-.43 2.929-1.213a4.115 4.115 0 001.213-2.929 4.11 4.11 0 00-.874-2.545 4.118 4.118 0 001.882-1.078 4.148 4.148 0 00.296-5.526l1.502-1.503a1.04 1.04 0 10-1.47-1.47l-1.486 1.485-11.417-11.418a6.35 6.35 0 004.07-1.849 1.04 1.04 0 10-1.471-1.47 4.27 4.27 0 01-3.04 1.258 4.267 4.267 0 01-2.345-.695l-.007-.005a4.348 4.348 0 01-.687-.558 1.04 1.04 0 00-1.47 0l-4.774 4.774a2.04 2.04 0 01-1.453.601 2.056 2.056 0 01-1.452-3.506l10.334-10.333a2.438 2.438 0 012.314-.636l6.8 1.728.024.005a.976.976 0 00.21.026h.046a1.03 1.03 0 00.691-.285l.02-.018 2.36-2.36 9.914 9.914-2.36 2.36c-.239.24-.347.58-.289.914l.606 3.472a2.43 2.43 0 01-.675 2.133l-1.258 1.257a1.04 1.04 0 101.471 1.471l1.258-1.258a4.512 4.512 0 001.253-3.96l-.513-2.94 1.978-1.978.698.697c.41.41.95.616 1.489.616.54 0 1.078-.205 1.489-.616l6.28-6.28c.398-.398.617-.927.617-1.49a2.099 2.099 0 00-.618-1.488zm-1.47 1.507l-6.281 6.28a.026.026 0 01-.037 0l-1.433-1.432L49.778 9.837h-.002l-1.432-1.433a.026.026 0 010-.037l6.281-6.28a.026.026 0 01.018-.007c.007 0 .014.003.019.007l14.25 14.25c.009.01.009.029 0 .037z" fill="#fff"/></svg>